<?xml version="1.0" encoding="UTF-8"?><svg id="a" xmlns="http://www.w3.org/2000/svg" xmlns:xlink="http://www.w3.org/1999/xlink" viewBox="0 0 1904 553"><defs><style>.f{fill:none;}.g{fill:#02a652;}.h{fill:#02aeee;}.i{fill:#f5b426;}.j{fill:#ea2662;}.k{fill:#fff;}.l{fill:#fefefd;}.m{fill:#fef104;}.n{fill:#fdfdfd;}.o{fill:#8ed8f7;}.p{fill:#0685c9;}.q{filter:url(#d);}.r{clip-path:url(#c);}.s{clip-path:url(#b);}</style><clipPath id="b"><rect class="f" y="0" width="553" height="553"/></clipPath><clipPath id="c"><rect class="f" y="0" width="553" height="553"/></clipPath><filter id="d" filterUnits="userSpaceOnUse"><feOffset dx="0" dy="0"/><feGaussianBlur result="e" stdDeviation="8"/><feFlood flood-color="#fff" flood-opacity=".75"/><feComposite in2="e" operator="in"/><feComposite in="SourceGraphic"/></filter></defs><g class="s"><g class="r"><path class="h" d="M255.48,510.46c-19.47,.35-38.09-4.11-56.32-10.65-7.78-2.79-15.53-5.67-23.24-8.64-13.93-5.36-25.97-13.81-37.62-22.85-42.65-33.06-76.81-73.24-101.17-121.51-8.79-17.41-15.43-35.63-19-54.9-2.97-16-2.75-31.98,0-47.96,5.32-30.88,18.12-58.7,35.14-84.69,26.2-40.03,59.79-72.77,99.13-99.8,9.94-6.83,20.78-11.64,31.98-15.8,14.06-5.22,28.09-10.53,42.88-13.4,13.21-2.57,26.51-3.03,39.95-2.29,12.43,.69,24.76,1.92,36.94,4.39,23.57,4.79,46.19,12.47,67.87,22.9,49.79,23.96,89.75,59.44,122.32,103.76,9.74,13.26,16.82,27.75,22.69,42.96,7.27,18.85,13.83,37.93,18.53,57.61,1.67,6.98,1.11,14.02,.11,20.97-2.67,18.64-7.83,36.63-14.73,54.14-2.18,5.53-5.63,10.29-8.86,15.17-35.68,53.78-82.24,95.47-139.57,125.08-28.94,14.95-59.25,26.15-91.16,32.9-8.51,1.8-17.08,2.87-25.85,2.62m-129-75.17l-.04-.02c-.17,.58,.25,.89,.59,1.2,9.51,8.8,19.54,16.94,31.27,22.57,31.48,15.11,64.44,25.1,99.41,27.82,22.63,1.76,45.01,.29,67.08-5.11,41.9-10.24,76.92-32.17,106.55-63.12,19.45-20.32,35.09-43.35,47.9-68.34,5.88-11.48,11.34-23.17,15.6-35.33,4.81-13.72,6.07-28.16,6.86-42.59,.52-9.55-.59-19.05-1.87-28.49-1-7.34-2.45-14.6-5.27-21.52-7.89-19.32-18.88-36.77-31.95-52.95-4.35-5.38-8.61-10.85-13.7-15.59l.06,.07c-.36-.93-1.11-1.55-1.77-2.25-12.48-13.3-25.88-25.59-40.22-36.85-26.34-20.69-54.75-37.85-86.11-49.85-28.92-11.07-58.67-17.15-89.81-14.19-21.03,2-40.68,8.29-58.55,19.62-12.78,8.1-24.71,17.4-36.69,26.63-23.6,18.19-42.18,40.41-54.24,67.86-8.05,18.33-13.37,37.45-16.94,57.09-1.53,8.42-3.12,16.84-3.58,25.41-1.16,7.51-2.12,15.05-2.69,22.62-1.05,13.94-.92,27.86,.36,41.81,1.68,18.44,5.2,36.51,10.56,54.2,8.18,26.97,23.69,48.49,47.79,63.52,2.68,1.67,5.6,2.97,8.02,5.06,.42,.31,.67,.94,1.37,.74"/><path class="i" d="M299.89,449.61c-7.46,1.91-15.07,2.96-22.67,4.03-17.35,2.43-34.8,3.71-52.32,3.36-29.31-.59-58-4.66-85.32-15.94-4.42-1.82-8.75-3.85-13.13-5.78l.04,.02c-.2-.73-.82-.67-1.37-.74-2.42-2.09-5.34-3.39-8.02-5.06-24.11-15.03-39.61-36.55-47.79-63.52-5.37-17.69-8.88-35.76-10.56-54.2-1.27-13.95-1.41-27.87-.36-41.81,.57-7.57,1.53-15.11,2.69-22.62,1.43-3.88,1.91-8,2.94-11.98,6.98-27.19,19.05-51.67,38.35-72.31,7.85-8.4,16.61-15.73,26.23-22.04,.78-.51,1.46-1.3,2.53-1.24-.15,1.65-1.59,2.34-2.57,3.3-15.34,15.04-27.47,32.41-37.48,51.34-8.49,16.06-15.02,32.88-19.9,50.36-4.11,14.73-6.4,29.64-4.92,45.01,1.06,11.04,4.06,21.48,8.45,31.61,2.15,4.95,5.05,9.5,7.34,14.37,.04,.39,.16,.73,.53,.92l-.03-.06c-.12,1.7,.71,3.18,1.22,4.71,10.86,33.09,31.78,57.68,62.79,73.47,23.29,11.86,48.42,16.57,74.28,18.05,5.79,1.68,11.57,3.42,17.38,5.02,15.26,4.19,30.67,7.6,46.38,9.63,5.11,.66,10.21,1.39,15.31,2.09"/><path class="i" d="M448.9,153.82c-.57,1.16,.38,1.77,.97,2.44,13.81,15.67,21.34,34.25,25.34,54.48,3.75,18.97,4.23,38.16,3.77,57.41-2.32-13.14-6.5-25.65-12.81-37.42-5.74-10.72-12.75-20.57-20.5-29.92-.02-.58,.14-1.23-.64-1.48l.03,.05c-.52-3.09-2.04-5.8-3.66-8.36-6.74-10.64-14.99-19.97-24.63-28.09-14.02-11.79-29.99-20.06-47.22-25.97-4.24-1.45-8.42-3.22-12.98-3.55l.06,.03c-.18-.77-.85-.47-1.33-.6-3.24-1.46-6.49-2.91-9.71-4.39-16.9-7.77-34.3-14.18-52.16-19.37-8.77-2.55-17.69-4.45-26.51-6.73,16.22-1.39,32.45-1.32,48.69-.24,20.59,1.37,40.86,4.58,60.66,10.48,20.43,6.09,39.64,14.72,56.66,27.79,4.82,3.7,9.31,7.76,13.57,12.08,.64,.65,1.04,2.03,2.47,1.41l-.06-.07Z"/><path class="n" d="M125.11,434.56c.56,.06,1.18,0,1.37,.74-.7,.21-.95-.43-1.37-.74"/><path class="j" d="M445.68,200.82c7.75,9.35,14.76,19.2,20.5,29.92,6.3,11.78,10.48,24.28,12.81,37.42,3.14,23.19-2.25,44.91-11.4,65.98-.46,.3-.51,.76-.5,1.25,0,.1-.03,.2-.1,.28-.54,.43-.9,.98-1.04,1.66-.02,.22-.03,.44-.05,.65-.22,.31-.5,.59-.66,.92-4.32,8.91-9.24,17.49-14.29,26.01-1.73,2.92-4.14,5.54-4.75,9.06l.02-.03c-.88-.05-1.1,.5-1.13,1.23l.02-.04c-.57,.18-.68,.63-.67,1.15l.03-.04c-.4,.1-.54,.4-.61,.77-10.51,15.06-22.13,29.12-36.49,40.75-21.29,17.25-45.32,28.08-72.62,31.5-11.63,1.46-23.24,1.23-34.88,.35-5.1-.7-10.21-1.43-15.32-2.09-15.7-2.04-31.12-5.45-46.38-9.63-5.82-1.6-11.59-3.34-17.38-5.02-1.23-.5-2.44-1.06-3.7-1.49-26.19-9.02-51.09-20.7-74.23-36.01-19.55-12.93-37.22-27.95-51.62-46.59-3.05-3.94-5.83-8.09-8.74-12.14l.03,.06c-.05-.38-.13-.74-.53-.92-2.28-4.87-5.19-9.42-7.34-14.37-4.39-10.13-7.39-20.57-8.45-31.61-1.48-15.37,.81-30.28,4.92-45.01,4.88-17.48,11.41-34.31,19.9-50.36,10-18.93,22.13-36.3,37.48-51.34,.98-.96,2.43-1.65,2.57-3.3l-.02,.02c.4,.03,.61-.16,.64-.56h-.03c.63,.13,.99-.18,1.19-.74,6.95-5.77,13.83-11.61,21.43-16.57,21.81-14.23,45.56-22.29,71.68-23.34,12.77-.51,25.32,.83,37.8,3.28,1.03,.2,2.09,.32,3.13,.48,8.83,2.29,17.75,4.18,26.51,6.73,17.86,5.19,35.26,11.6,52.16,19.37,3.23,1.48,6.48,2.93,9.71,4.39,.31,.49,.79,.61,1.33,.6l-.06-.03c.42,.73,1.23,.86,1.89,1.21,7.59,3.95,15.08,8.05,22.38,12.5,23.37,14.24,44.76,30.87,62.88,51.51,.32,.37,.58,1.07,1.33,.74l-.03-.05c-.41,.76,.33,1.03,.64,1.48m-330.14-16.49c-.9,.2-1.1,.99-1.4,1.69-.13,.2-.26,.4-.39,.6-.41,.24-.58,.63-.65,1.09-.54,.79-1.14,1.56-1.62,2.38-13.14,22.59-20.62,46.94-21.85,73.04-.91,19.12,3.57,37.22,12.01,54.34,10.08,20.44,24.98,36.94,42.88,50.69,26.52,20.36,55.57,36.55,86.2,49.8,21.82,9.44,44.46,15.55,68.63,13.25,3.96,.11,7.84-.63,11.74-1.09,17.53-2.05,34.6-5.97,51.11-12.25,19.2-7.31,36.43-17.75,51.1-32.22,12.98-12.8,22.74-27.79,29.63-44.63,2.54-6.21,5.02-12.47,6.2-19.14,1.12-3.38,1.96-6.83,2.61-10.32,1.48-7.94,3.24-15.91,2.96-24-.46-13.46-3.47-26.47-8.61-38.95-9.18-22.29-23.89-40.55-41.75-56.34-21.78-19.25-45.79-35.45-70.88-50.03-14.08-8.18-28.92-14.78-44.8-18.79-7.68-2.22-15.53-3.55-23.49-3.8-16.65-.52-33.21,.47-49.67,3.3-16.68,2.87-32.74,7.67-47.88,15.21-17.79,8.87-33.2,20.83-45.56,36.51-2.41,3.06-5.18,5.93-6.59,9.69l.02-.03Z"/><path class="i" d="M132.88,138.5c-.21,.55-.57,.86-1.19,.75,.24-.51,.71-.63,1.19-.75"/><path class="i" d="M131.72,139.24c-.03,.4-.24,.59-.64,.56,0-.42,.27-.55,.64-.56"/><path class="i" d="M446.2,373.96c.61-3.52,3.02-6.15,4.75-9.06,5.05-8.52,9.96-17.1,14.29-26.01,.16-.34,.44-.62,.66-.92,.13,2.23-1.17,4.02-2,5.91-4.52,10.29-10.02,20.04-16.7,29.1-.27,.37-.66,.66-1,.99"/><path class="i" d="M465.94,337.31c.15-.68,.51-1.22,1.04-1.66,.12,.85-.15,1.45-1.04,1.66"/><path class="i" d="M445.09,375.16c.02-.73,.24-1.28,1.13-1.23-.13,.64-.37,1.17-1.13,1.23"/><path class="i" d="M467.08,335.38c0-.48,.04-.95,.5-1.25,.02,.49-.03,.96-.5,1.25"/><path class="i" d="M444.45,376.27c0-.52,.1-.97,.67-1.15,.09,.56-.17,.92-.67,1.15"/><path class="i" d="M443.87,377c.06-.37,.21-.67,.61-.77-.04,.39-.27,.62-.61,.77"/><path class="l" d="M82.03,335.78c.4,.18,.47,.55,.53,.92-.37-.2-.49-.54-.53-.92"/><path class="l" d="M445.68,200.82c-.31-.45-1.04-.72-.64-1.48,.77,.25,.62,.91,.64,1.48"/><path class="l" d="M356.63,133.45c-.54,0-1.01-.11-1.33-.6,.47,.13,1.14-.17,1.33,.6"/><path class="i" d="M299.36,431.21c4.92-.77,9.85-1.47,14.75-2.33,20.12-3.53,39.67-8.96,56.91-20.29,24.9-16.37,46.74-36.07,63.65-60.86,5.05-7.4,9.38-15.22,13.14-23.35,.4-.86,.59-1.83,1.35-2.5-1.19,6.66-3.66,12.93-6.2,19.14-6.89,16.84-16.65,31.83-29.63,44.63-14.67,14.47-31.9,24.91-51.1,32.22-16.51,6.28-33.59,10.2-51.11,12.25-3.91,.46-7.78,1.2-11.74,1.09"/><path class="i" d="M288.69,123.45c-10.37-.76-20.75-1.21-31.14-1.2-16.79,.02-33.41,1.49-49.85,5.1-19.55,4.3-36.68,13.61-52.99,24.76-13.48,9.21-26.11,19.42-37.4,31.24-.46,.48-.76,1.45-1.79,1.01,1.41-3.76,4.18-6.63,6.59-9.69,12.35-15.68,27.77-27.65,45.55-36.51,15.14-7.55,31.2-12.35,47.88-15.21,16.46-2.83,33.02-3.82,49.67-3.3,7.96,.25,15.81,1.58,23.49,3.8"/><path class="i" d="M115.54,184.33c.24,1.15-.28,1.67-1.4,1.69,.3-.7,.49-1.49,1.4-1.69"/><path class="i" d="M113.75,186.62c.06,.53-.13,.9-.65,1.09,.06-.45,.23-.84,.65-1.09"/><path class="g" d="M266.92,156.4c38.82,.47,74.75,10.9,107.59,31.62,13.74,8.67,22.77,21.33,28.95,36.16,5.91,14.19,8.54,29.11,9.77,44.32,.95,11.64,1.01,23.27-.56,34.87-2.69,19.9-9.61,37.86-24.69,51.79-12.22,11.29-25.91,20.56-40.61,28.34-19.26,10.21-39.6,17.33-61.12,20.87-19.26,3.16-38.5,3.27-57.64-1.16-24.46-5.67-43.14-19.57-57.32-39.97-12.44-17.89-20.14-37.74-24.54-58.96-2.29-11.05-3.46-22.25-3.97-33.5-.46-10.15,1.78-19.87,5-29.42,5.42-16.07,13.24-30.88,23.3-44.53,13.06-17.72,30.89-28.29,51.63-34.42,14.4-4.26,29.16-6.08,44.19-5.99m5.09,227.09c17.58,0,34.98-1.66,52.14-5.52,13.85-3.11,27.22-7.54,39.45-14.99,10.64-6.48,17.63-15.35,20.25-27.8,2.67-12.7,3.75-25.52,3.82-38.42,.1-18.03-1.39-35.97-4.56-53.74-2.33-13.08-5.43-25.96-10.96-38.15-3.3-7.27-8.28-12.85-15.28-16.73-6.44-3.57-13.25-6.14-20.37-7.89-16.4-4.02-33.05-4.89-49.87-4.15-22.33,.98-44.19,4.54-65.37,11.75-14.06,4.78-27.17,11.1-37.39,22.5-22.23,24.8-30.38,54.23-26.97,86.59,2.03,19.29,10.45,36.73,22.89,51.89,12.99,15.82,28.96,26.72,49.47,30.6,14.16,2.67,28.37,4.05,42.75,4.07"/><path class="m" d="M367.54,279.9c-.31,18.82-3.16,36.27-11,52.63-5.16,10.77-12.12,20.07-22.37,26.61-9.53,6.08-20.01,7.69-31.02,6.6-19.07-1.91-37.98-4.77-56.53-9.7-15.39-4.08-30.39-9.18-44.05-17.56-7.44-4.57-14.12-10-19.12-17.32-4.38-6.4-5.67-13.36-5.27-21.07,1.3-24.91,11.29-46.69,23.67-67.65,6.78-11.47,15.12-21.77,23.97-31.75,12.31-13.89,27.69-19.15,45.74-17.9,23.3,1.61,44.21,9.68,62.78,23.75,10.9,8.26,19.67,18.38,25.71,30.73,3.68,7.53,4.99,15.73,6.31,23.88,1.05,6.47,.81,13.05,1.17,18.74m-93.17,76.22c7.36,2.31,14.93,3.2,22.48,1.85,12.67-2.26,24.19-7.55,34.68-14.96,12.27-8.67,20.82-20.13,24.91-34.7,3.32-11.84,3.03-23.76,.48-35.71-2.52-11.79-5.18-23.51-12.78-33.35-.17-.22-.22-.53-.35-.79-2.2-4.4-4.64-8.66-7.53-12.63-11.72-16.13-26.37-28.56-45.57-34.77-17.31-5.6-33.39-3.48-47.56,8.79-10.28,8.9-20.2,18.14-29.06,28.47-9.58,11.17-17.85,23.17-23.15,37.01-3.28,8.56-4.8,17.38-3.83,26.57,.83,7.96,3.89,15.25,6.97,22.49,2.81,6.6,7.42,11.89,13.26,16.06,8.64,6.18,18.47,9.79,28.4,13.21,.98,.76,2.04,1.45,2.93,2.3,5.84,5.56,12.82,8.57,20.76,9.7,4.98,.71,9.98,.05,14.95,.47"/><path class="o" d="M285.68,206.82h11.47c.6,.21,1.19,.51,1.8,.63,7.78,1.53,15.06,4.28,21.42,9.09,16.37,12.38,26.16,29.04,31.29,48.67,.86,3.29,1.51,6.63,2.26,9.95v9.19c-.38,1.26-.89,2.49-1.14,3.78-1.78,9.13-3.37,18.35-9.81,25.64-4.35,4.93-8.71,9.91-13.56,14.33-14.02,12.76-30.17,21.71-48.76,25.93-8.76,1.99-17.56,2.27-26.3-.09-10.63-2.87-18.06-9.94-23.85-18.91-6.7-10.36-10.13-21.98-12.49-33.96-2.07-10.51-4.27-21.02-.14-31.56,.13-.34,.13-.75,.14-1.13,.18-5.88,2.11-11.22,4.89-16.32,5.48-10.05,13-18.38,21.74-25.64,10.26-8.53,21.59-15.06,34.72-18.12,2.1-.49,4.2-.98,6.31-1.47m-58.95,88.13c.53,7.13,.74,14.31,1.66,21.39,2.07,16.12,13.32,31.52,34.47,29.45,22.78-2.23,43.61-9.88,62.55-22.74,9.4-6.38,15.62-15.19,18.37-26.12,1.17-4.64,.62-9.69,1.2-14.51,.95-7.97-.05-15.74-3-23.06-9.48-23.44-28.3-34.18-52.29-36.99-12.29-1.44-23.68,2.27-34.06,8.76-12.34,7.71-21.5,18.02-24.58,32.73-.7,3.35-.11,7.09-1.34,10.17-2.73,6.83-2.68,13.8-2.97,20.91"/><path class="p" d="M233.92,278.92c.53-1.95,1.11-3.89,1.58-5.86,2.84-12.06,8.59-22.57,16.96-31.62,8.29-8.96,18.94-11.48,30.57-10,16.63,2.11,30.23,10.18,40.73,23.02,9.69,11.86,11.94,25.81,9.38,40.66-1.2,6.94-3.57,13.46-6.92,19.68-5.38,10.02-13.81,15.58-24.97,16.25-19.76,1.19-37.77-4.37-53.89-15.77-6.84-4.83-10.92-11.65-12.56-19.91-.15-.77-.58-1.49-.88-2.24v-14.21Zm53.58,44.39c4.28-.35,10.14-.66,15.96-1.34,14.84-1.74,23.4-10.4,24.89-25.18,1.69-16.79-3.61-31.35-14.66-43.88-13.47-15.28-34-21.26-54.25-11.02-5.65,2.86-9.6,6.92-11.9,12.7-4.84,12.16-5.87,24.75-4.19,37.64,.9,6.89,3.04,13.16,8.12,18.29,9.55,9.63,21.47,12.51,36.02,12.79"/></g></g><g class="q"><polygon class="k" points="776.46 421.68 827.42 421.68 827.42 433.39 762.82 433.39 762.82 339.17 825.36 339.17 825.36 350.75 776.46 350.75 776.46 378.96 822.46 378.96 822.46 390.27 776.46 390.27 776.46 421.68 776.46 421.68"/><polygon class="k" points="931.56 414.5 931.84 414.5 931.84 339.17 945.47 339.17 945.47 433.39 928.26 433.39 876.74 356.47 876.46 356.47 876.46 433.39 862.82 433.39 862.82 339.17 880.59 339.17 931.56 414.5 931.56 414.5"/><path class="k" d="M1070,418.75c-3.86,5.06-8.86,9.16-15.01,12.31-6.15,3.15-13.55,4.72-22.18,4.72-7.44,0-14.3-1.22-20.59-3.66-6.29-2.44-11.71-5.86-16.25-10.25-4.55-4.39-8.1-9.63-10.68-15.7-2.57-6.08-3.86-12.75-3.86-20.03s1.31-14.09,3.93-20.16c2.62-6.08,6.24-11.27,10.88-15.57,4.64-4.3,10.12-7.65,16.46-10.05,6.34-2.4,13.22-3.59,20.66-3.59,3.31,0,6.66,.31,10.06,.93,3.4,.62,6.66,1.55,9.78,2.79,3.12,1.24,5.97,2.77,8.54,4.59s4.78,3.93,6.61,6.32l-10.74,7.99c-2.39-3.19-5.76-5.83-10.12-7.92-4.36-2.09-9.07-3.13-14.12-3.13-5.69,0-10.81,1-15.36,2.99-4.55,2-8.43,4.72-11.64,8.18-3.21,3.46-5.69,7.48-7.44,12.04-1.75,4.57-2.62,9.43-2.62,14.57s.85,10.29,2.55,14.91c1.7,4.61,4.13,8.63,7.3,12.04,3.17,3.42,7.03,6.1,11.57,8.05,4.55,1.95,9.62,2.93,15.22,2.93s10.51-1.06,15.01-3.19c4.5-2.13,8.22-5.24,11.16-9.32l10.88,7.19h0Z"/><path class="k" d="M1197.83,386.15c0,7.28-1.31,13.95-3.93,20.03-2.62,6.08-6.22,11.31-10.81,15.7-4.59,4.39-10.06,7.81-16.39,10.25-6.34,2.44-13.22,3.66-20.66,3.66s-14.3-1.22-20.59-3.66c-6.29-2.44-11.73-5.86-16.32-10.25-4.59-4.39-8.17-9.63-10.74-15.7-2.57-6.08-3.86-12.75-3.86-20.03s1.29-14.09,3.86-20.16c2.57-6.08,6.15-11.27,10.74-15.57,4.59-4.3,10.03-7.65,16.32-10.05,6.29-2.4,13.16-3.59,20.59-3.59s14.33,1.2,20.66,3.59c6.34,2.4,11.8,5.74,16.39,10.05,4.59,4.3,8.2,9.49,10.81,15.57,2.62,6.08,3.93,12.8,3.93,20.16h0Zm-14.74,0c0-5.15-.87-10-2.62-14.57-1.74-4.57-4.22-8.58-7.44-12.04-3.21-3.46-7.09-6.19-11.64-8.18-4.55-2-9.67-2.99-15.36-2.99s-10.68,1-15.22,2.99c-4.55,2-8.4,4.72-11.57,8.18-3.17,3.46-5.62,7.48-7.37,12.04s-2.62,9.43-2.62,14.57,.87,10.16,2.62,14.77c1.74,4.61,4.22,8.63,7.44,12.04,3.21,3.42,7.07,6.1,11.57,8.05,4.5,1.95,9.55,2.93,15.15,2.93s10.7-.98,15.29-2.93c4.59-1.95,8.49-4.64,11.71-8.05,3.21-3.42,5.69-7.43,7.44-12.04,1.74-4.61,2.62-9.54,2.62-14.77h0Z"/><path class="k" d="M1270.84,435.79c-6.43,0-12.03-1.04-16.81-3.13-4.78-2.09-8.72-4.86-11.85-8.32-3.12-3.46-5.44-7.43-6.96-11.91-1.52-4.48-2.27-9.12-2.27-13.91v-59.36h13.64v58.56c0,3.19,.41,6.37,1.24,9.52,.83,3.15,2.18,5.97,4.06,8.45,1.88,2.48,4.36,4.48,7.44,5.99,3.08,1.51,6.91,2.26,11.5,2.26s8.31-.75,11.43-2.26c3.12-1.51,5.62-3.51,7.51-5.99,1.88-2.48,3.24-5.3,4.06-8.45,.83-3.15,1.24-6.32,1.24-9.52v-58.56h13.64v59.36c0,4.79-.76,9.43-2.27,13.91-1.52,4.48-3.83,8.45-6.96,11.91-3.12,3.46-7.07,6.23-11.85,8.32-4.78,2.09-10.38,3.13-16.81,3.13h0Z"/><polygon class="k" points="1417.68 414.5 1417.95 414.5 1417.95 339.17 1431.59 339.17 1431.59 433.39 1414.37 433.39 1362.85 356.47 1362.58 356.47 1362.58 433.39 1348.94 433.39 1348.94 339.17 1366.71 339.17 1417.68 414.5 1417.68 414.5"/><polygon class="k" points="1506.66 433.39 1493.02 433.39 1493.02 350.75 1461.76 350.75 1461.76 339.17 1537.93 339.17 1537.93 350.75 1506.66 350.75 1506.66 433.39 1506.66 433.39"/><polygon class="k" points="1581.74 421.68 1632.7 421.68 1632.7 433.39 1568.1 433.39 1568.1 339.17 1630.64 339.17 1630.64 350.75 1581.74 350.75 1581.74 378.96 1627.74 378.96 1627.74 390.27 1581.74 390.27 1581.74 421.68 1581.74 421.68"/><path class="k" d="M1681.74,433.39h-13.64v-94.23h31.27c4.68,0,9.14,.47,13.36,1.4,4.22,.93,7.92,2.42,11.09,4.46,3.17,2.04,5.67,4.72,7.51,8.05,1.84,3.33,2.75,7.39,2.75,12.18,0,6.92-2.2,12.51-6.61,16.77-4.41,4.26-10.1,6.96-17.08,8.12l27.27,43.25h-16.53l-24.79-41.92h-14.6v41.92h0Zm0-52.97h15.7c3.21,0,6.2-.27,8.95-.8,2.75-.53,5.17-1.4,7.23-2.6,2.07-1.2,3.7-2.75,4.89-4.66,1.19-1.91,1.79-4.28,1.79-7.12s-.6-5.21-1.79-7.12c-1.19-1.91-2.78-3.44-4.75-4.59-1.97-1.15-4.29-1.97-6.96-2.46-2.66-.49-5.46-.73-8.4-.73h-16.67v30.08h0Z"/><path class="k" d="M1818.39,356.6c-1.93-2.57-4.55-4.68-7.85-6.32-3.31-1.64-7.03-2.46-11.16-2.46-2.2,0-4.43,.29-6.68,.87-2.25,.58-4.29,1.51-6.13,2.79-1.84,1.29-3.33,2.88-4.48,4.79-1.15,1.91-1.72,4.19-1.72,6.85s.53,4.72,1.58,6.45,2.48,3.19,4.27,4.39,3.9,2.22,6.34,3.06c2.43,.84,5.03,1.71,7.78,2.6,3.31,.98,6.66,2.09,10.06,3.33,3.4,1.24,6.47,2.88,9.23,4.92,2.76,2.04,5.01,4.59,6.75,7.65,1.75,3.06,2.62,6.94,2.62,11.65s-.94,9.12-2.82,12.71c-1.88,3.59-4.39,6.57-7.51,8.92-3.12,2.35-6.73,4.1-10.81,5.26-4.09,1.15-8.29,1.73-12.6,1.73-6.15,0-12.1-1.15-17.84-3.46-5.74-2.31-10.49-5.72-14.26-10.25l10.61-8.65c2.3,3.28,5.37,5.94,9.23,7.99,3.86,2.04,8.04,3.06,12.54,3.06,2.3,0,4.59-.31,6.89-.93,2.3-.62,4.38-1.6,6.27-2.93,1.88-1.33,3.42-2.99,4.61-4.99,1.19-2,1.79-4.41,1.79-7.25s-.62-5.21-1.86-7.12c-1.24-1.91-2.92-3.53-5.03-4.86-2.11-1.33-4.57-2.46-7.37-3.39-2.8-.93-5.76-1.89-8.88-2.86-3.12-.89-6.2-1.97-9.23-3.26-3.03-1.29-5.74-2.93-8.13-4.92-2.39-2-4.32-4.46-5.79-7.39-1.47-2.93-2.2-6.57-2.2-10.91,0-4.7,.99-8.74,2.96-12.11,1.97-3.37,4.55-6.17,7.71-8.38,3.17-2.22,6.75-3.84,10.74-4.86,3.99-1.02,8.01-1.53,12.05-1.53,5.69,0,11.02,.98,15.98,2.93,4.96,1.95,8.95,4.57,11.98,7.85l-9.64,9.05h0Z"/><path class="k" d="M744.59,382.08c0,23.64-9.63,41.21-28.88,52.69-19.25,11.49-40.32,17.56-63.21,18.23h-5.72c-9.02,0-17.95-.75-26.79-2.25-8.84-1.5-16.91-3.91-24.19-7.24-12.14-5.33-22.2-13.9-30.18-25.72-7.98-11.82-12.31-24.22-13.01-37.21v-4.5c0-6.66,1.04-12.99,3.12-18.98,2.08-5.99,5.38-11.65,9.89-16.98,4.86-5.66,10.32-9.82,16.39-12.49,6.07-2.66,12.4-4,18.99-4,8.32,.33,16.04,2.91,23.15,7.74,7.11,4.83,11.53,12.24,13.27,22.23,.35,1,.52,2,.52,3v2.5c0,7.99-2.6,14.9-7.8,20.73-5.2,5.83-11.45,8.57-18.73,8.24-1.39,0-2.69-.08-3.9-.25-1.21-.17-2.34-.42-3.38-.75-1.39-.67-2.69-1.25-3.9-1.75-1.21-.5-2.51-1.25-3.9-2.25-3.82-2.66-6.59-5.49-8.32-8.49-1.73-3-2.6-5.99-2.6-8.99,0-4.33,1.56-7.91,4.68-10.74,3.12-2.83,7.11-4.25,11.97-4.25,2.43,0,4.86,.42,7.28,1.25,2.43,.83,4.86,2.08,7.28,3.75,1.39,.67,2.6,1.5,3.64,2.5,1.04,1,1.91,2,2.6,3v-2c0-6.99-2.25-12.24-6.76-15.73-4.51-3.5-9.71-5.24-15.61-5.24h-2.08c-.69,0-1.39,.17-2.08,.5-3.47,.33-6.85,1.42-10.15,3.25-3.3,1.83-6.33,4.25-9.1,7.24-3.47,4-5.98,8.32-7.54,12.99-1.56,4.66-2.34,9.49-2.34,14.48v4.5c1.04,10.32,4.77,20.06,11.19,29.22,6.42,9.16,14.31,15.9,23.67,20.23,6.59,3,13.53,5.24,20.81,6.74,7.28,1.5,14.74,2.25,22.37,2.25,15.61,0,29.66-3.91,42.14-11.74,12.49-7.83,18.73-20.89,18.73-39.21s-6.07-32.97-18.21-45.95c-12.14-12.99-25.49-25.47-40.06-37.46-.35-.33-.78-.75-1.3-1.25-.52-.5-1.13-.92-1.82-1.25-15.61-12.65-29.66-26.06-42.14-40.21-12.49-14.15-18.73-31.22-18.73-51.2s7.46-36.3,22.37-46.95c14.91-10.66,31.56-15.98,49.95-15.98h5.72c8.32,.67,16.56,2.41,24.71,5.24,8.15,2.83,15.52,6.91,22.11,12.24v-9.49h15.09v76.42h-15.09v-45.45c-4.51-6.99-10.58-12.4-18.21-16.23-7.63-3.83-15.61-6.08-23.93-6.74-1.04-.33-1.99-.5-2.86-.5h-2.86c-10.75,0-20.38,3.08-28.88,9.24-8.5,6.16-12.75,15.9-12.75,29.22s3.64,23.31,10.93,31.97c7.28,8.66,15.44,16.82,24.45,24.47,.35,.33,.69,.75,1.04,1.25,.35,.5,.87,.92,1.56,1.25,2.08,1.67,4.08,3.41,5.98,5.24,1.91,1.83,3.9,3.75,5.98,5.74,3.12,3.33,6.42,6.58,9.89,9.74,3.47,3.16,6.94,6.41,10.41,9.74,.35,.33,.69,.58,1.04,.75,.35,.17,.69,.42,1.04,.75,13.18,12.32,25.32,25.22,36.42,38.71,11.1,13.49,16.65,30.22,16.65,50.2h0Z"/><path class="k" d="M854.59,242.92c-6.24,7.33-13.7,12.9-22.37,16.73-8.67,3.83-17.52,5.74-26.53,5.74h-3.12c-1.04,0-2.08-.17-3.12-.5-6.24-.67-12.4-2.33-18.47-4.99-6.07-2.66-11.71-6.33-16.91-10.99-6.24-5.66-10.84-11.9-13.79-18.73-2.95-6.83-4.42-13.74-4.42-20.73,.35-14.65,6.16-27.64,17.43-38.96,11.27-11.32,25.93-17.15,43.96-17.48h1.56c9.02,.33,17.26,2.5,24.71,6.49s11.88,10.66,13.27,19.98v4c0,9.99-3.9,18.06-11.71,24.22-7.8,6.16-16.56,10.91-26.27,14.24-2.77,1-5.55,1.91-8.32,2.75-2.78,.83-5.38,1.58-7.8,2.25l-1.56,.5c.35,1.33,.78,2.66,1.3,4,.52,1.33,.95,2.66,1.3,4,1.73,4,3.9,7.58,6.5,10.74,2.6,3.16,6.16,4.58,10.67,4.25h1.56c5.9-.67,11.53-2.5,16.91-5.49,5.38-3,9.97-6.66,13.79-10.99l11.45,8.99h0Zm-22.89-61.93c-.35-4-2.08-6.99-5.2-8.99-3.12-2-6.42-3.16-9.89-3.5-.69-.33-1.47-.5-2.34-.5h-2.34c-5.55,0-10.06,2.66-13.53,7.99-3.47,5.33-5.9,11.15-7.28,17.48-1.04,3.33-1.73,6.58-2.08,9.74-.35,3.16-.52,5.91-.52,8.24v1.5c2.43-.67,5.2-1.42,8.32-2.25,3.12-.83,6.24-1.91,9.36-3.25,6.59-2.33,12.49-5.49,17.69-9.49,5.2-4,7.8-8.99,7.8-14.98v-2h0Z"/><path class="k" d="M974.26,191.48c-1.39,1.66-3.12,2.91-5.2,3.75-2.08,.83-4.16,1.25-6.24,1.25-1.73-.33-3.38-.67-4.94-1-1.56-.33-3.21-1-4.94-2-3.12-1.66-5.81-4.16-8.06-7.49s-3.73-6.83-4.42-10.49v-4c0-.33,.17-.83,.52-1.5,0-.33,.09-.75,.26-1.25,.17-.5,.26-.92,.26-1.25h-2.6c-1.04,0-2.17,.08-3.38,.25-1.21,.17-2.51,.42-3.9,.75-1.39,.33-2.69,.75-3.9,1.25-1.21,.5-2.34,1.08-3.38,1.75,.69,1.66,1.21,3.41,1.56,5.24,.35,1.83,.52,3.75,.52,5.74v82.91h-35.38v-94.4c-.35,0-.69-.17-1.04-.5-.35-.33-.52-.67-.52-1h-1.56c0,.33-.09,.5-.26,.5h-.26c-2.08,1.33-3.73,3.08-4.94,5.24-1.21,2.16-1.82,4.58-1.82,7.24h-15.09c0-8.99,3.21-16.15,9.63-21.48,6.42-5.33,13.44-7.99,21.07-7.99,3.47,0,6.85,.5,10.15,1.5,3.29,1,6.33,2.83,9.1,5.49,4.16-2.33,8.32-4.08,12.49-5.24,4.16-1.17,8.5-1.75,13.01-1.75s8.84,.58,13.01,1.75c4.16,1.17,8.15,2.91,11.97,5.24,3.12,1.66,5.81,4.16,8.06,7.49,2.25,3.33,3.73,6.83,4.42,10.49v2.5c0,2-.26,3.91-.78,5.74-.52,1.83-1.65,3.58-3.38,5.24h0Z"/><path class="k" d="M1101.72,242.92c-6.24,7.33-13.7,12.9-22.37,16.73-8.67,3.83-17.52,5.74-26.53,5.74h-3.12c-1.04,0-2.08-.17-3.12-.5-6.24-.67-12.4-2.33-18.47-4.99-6.07-2.66-11.71-6.33-16.91-10.99-6.24-5.66-10.84-11.9-13.79-18.73-2.95-6.83-4.42-13.74-4.42-20.73,.35-14.65,6.16-27.64,17.43-38.96,11.27-11.32,25.93-17.15,43.96-17.48h1.56c9.02,.33,17.26,2.5,24.71,6.49,7.46,4,11.88,10.66,13.27,19.98v4c0,9.99-3.9,18.06-11.71,24.22-7.8,6.16-16.56,10.91-26.27,14.24-2.77,1-5.55,1.91-8.32,2.75-2.77,.83-5.38,1.58-7.8,2.25l-1.56,.5c.35,1.33,.78,2.66,1.3,4,.52,1.33,.95,2.66,1.3,4,1.73,4,3.9,7.58,6.5,10.74,2.6,3.16,6.16,4.58,10.67,4.25h1.56c5.9-.67,11.53-2.5,16.91-5.49,5.38-3,9.97-6.66,13.79-10.99l11.45,8.99h0Zm-22.89-61.93c-.35-4-2.08-6.99-5.2-8.99-3.12-2-6.42-3.16-9.89-3.5-.69-.33-1.47-.5-2.34-.5h-2.34c-5.55,0-10.06,2.66-13.53,7.99-3.47,5.33-5.9,11.15-7.28,17.48-1.04,3.33-1.73,6.58-2.08,9.74-.35,3.16-.52,5.91-.52,8.24v1.5c2.43-.67,5.2-1.42,8.32-2.25,3.12-.83,6.24-1.91,9.37-3.25,6.59-2.33,12.49-5.49,17.69-9.49,5.2-4,7.8-8.99,7.8-14.98v-2h0Z"/><path class="k" d="M1271.86,235.43c0,8.32-3.04,15.32-9.1,20.98-6.07,5.66-13.27,8.49-21.59,8.49s-15.52-2.83-21.59-8.49c-6.07-5.66-9.1-12.65-9.1-20.98v-58.94c0-2.66-.95-4.58-2.86-5.74-1.91-1.17-4.08-1.75-6.5-1.75h-1.3c-.52,0-1.13,.17-1.82,.5-.35-.33-1.21-.08-2.6,.75-1.39,.83-2.77,1.75-4.16,2.75-.35,0-.61,.08-.78,.25-.17,.17-.43,.42-.78,.75-1.39,.67-2.6,1.42-3.64,2.25-1.04,.83-1.73,1.42-2.08,1.75-2.77,2.33-5.2,4.99-7.28,7.99-2.08,3-3.47,6.16-4.16,9.49v69.93l-35.9-.5v-93.9c-.35,0-.69-.17-1.04-.5-.35-.33-.52-.67-.52-1h-1.56c0,.33-.09,.5-.26,.5h-.26c-2.08,1.33-3.73,3.08-4.94,5.24-1.21,2.16-1.82,4.58-1.82,7.24h-15.09c0-8.99,3.12-16.07,9.36-21.23,6.24-5.16,13.18-7.91,20.81-8.24h1.56c5.55,0,10.84,1.42,15.87,4.25,5.03,2.83,8.76,7.41,11.19,13.74,3.12-3.33,6.59-6.24,10.41-8.74,3.82-2.5,7.8-4.41,11.97-5.74,2.77-1,5.72-1.83,8.84-2.5,3.12-.67,6.24-1,9.37-1,4.51,0,8.93,.75,13.27,2.25,4.34,1.5,8.24,3.58,11.71,6.24,3.47,2.66,6.24,5.91,8.32,9.74,2.08,3.83,3.12,8.07,3.12,12.74v62.43c0,.67,.09,1.17,.26,1.5,.17,.33,.78,.5,1.82,.5,1.39,0,2.69-.75,3.9-2.25,1.21-1.5,1.99-3.08,2.34-4.75,.69-1.33,1.13-2.5,1.3-3.5,.17-1,.26-1.83,.26-2.5h15.09Z"/><path class="k" d="M1425.4,44.14l-10.41,10.49c-1.73-1.67-3.82-3.08-6.24-4.25-2.43-1.17-5.03-1.75-7.8-1.75h-1.56c0,42.62-2.66,25.89-2.66,68.68V245.92c0,1.66,.61,2.41,1.82,2.25,1.21-.17,2.51-.75,3.9-1.75,1.04-1,2.08-2.33,3.12-4,1.04-1.67,1.73-3.33,2.08-4.99v-2h14.57c0,8.99-3.21,16.15-9.63,21.48-6.42,5.33-13.61,7.99-21.59,7.99h-2.08c-.69,0-1.39-.17-2.08-.5-3.47-.33-6.85-1.41-10.15-3.25-3.3-1.83-6.33-4.41-9.1-7.74-4.86,4.33-9.97,7.41-15.35,9.24-5.38,1.83-10.84,2.75-16.39,2.75-13.53-.33-25.58-5.99-36.16-16.98-10.58-10.99-15.87-24.14-15.87-39.46s5.2-27.72,15.61-39.21c10.41-11.49,22.55-17.06,36.42-16.73,2.08,0,4.16,.17,6.24,.5,2.08,.33,4.34,.67,6.76,1,2.08,.67,4.16,1.5,6.24,2.5,2.08,1,4.16,2.16,6.24,3.5,0-25.31,2.66-11.91,2.66-37.05v-54.35c0-10.66,3.82-19.15,11.45-25.47,7.63-6.33,15.96-9.49,24.97-9.49,4.51,0,8.93,.75,13.27,2.25,4.34,1.5,8.24,4.08,11.71,7.74h0Zm-64.06,194.79v-59.44c-3.12-3.66-6.07-6.24-8.84-7.74-2.77-1.5-5.55-2.08-8.32-1.75-5.9,0-10.75,3.33-14.57,9.99-3.82,6.66-6.07,13.98-6.76,21.98-.35,1.33-.52,2.58-.52,3.75v3.25c0,5.99,.69,11.49,2.08,16.48,1.39,4.99,3.29,9.32,5.72,12.99,0,.33,.09,.58,.26,.75,.17,.17,.43,.42,.78,.75,1.39,2,3.3,4,5.72,5.99,2.43,2,5.03,3,7.8,3h1.04c.35,0,.69-.17,1.04-.5,.35,0,.69-.08,1.04-.25,.35-.17,.69-.25,1.04-.25,2.43-1,4.68-2.33,6.76-4,2.08-1.67,3.99-3.33,5.72-4.99h0Z"/><path class="k" d="M1499.22,235.43c0,8.32-3.03,15.32-9.1,20.98-6.07,5.66-13.27,8.49-21.59,8.49s-15.44-2.83-21.33-8.49c-5.9-5.66-8.85-12.65-8.85-20.98v-79.42h35.38v89.91c0,.67,.26,1.25,.78,1.75,.52,.5,1.13,.75,1.82,.75,.35,0,.61-.08,.78-.25l.26-.25c2.08-1.66,3.73-3.58,4.94-5.74,1.21-2.16,1.82-4.41,1.82-6.74h15.09Zm-40.58,10.49s0,.92,0,.75v-.75h0Zm20.29-154.34c0,5.99-2.25,11.15-6.76,15.48-4.51,4.33-9.89,6.49-16.13,6.49-6.59,0-12.05-2.16-16.39-6.49-4.34-4.33-6.5-9.49-6.5-15.48,0-6.33,2.17-11.65,6.5-15.98,4.34-4.33,9.8-6.49,16.39-6.49,6.24,0,11.62,2.16,16.13,6.49,4.51,4.33,6.76,9.66,6.76,15.98h0Z"/><path class="k" d="M1607.44,248.42c-4.86,5.33-10.58,9.41-17.17,12.24-6.59,2.83-13.35,4.25-20.29,4.25-1.39,0-2.69-.08-3.9-.25-1.21-.17-2.51-.25-3.9-.25-2.77-.67-5.46-1.5-8.06-2.5-2.6-1-5.12-2.16-7.54-3.5v75.12h-35.9V131.04h35.9v28.47c2.08-1,4.08-1.91,5.98-2.75,1.91-.83,3.9-1.58,5.98-2.25,2.08-.33,4.08-.67,5.98-1,1.91-.33,3.9-.5,5.98-.5,6.94,0,13.61,1.42,20.03,4.25,6.42,2.83,12.05,7.08,16.91,12.74,4.86,5.33,8.58,11.4,11.19,18.23,2.6,6.83,3.73,13.9,3.38,21.23,0,6.99-1.21,13.82-3.64,20.48-2.43,6.66-6.07,12.82-10.93,18.48h0Zm-31.22-9.99c2.08-3.33,3.73-7.16,4.94-11.49,1.21-4.33,1.99-8.82,2.34-13.49v-8.99c-.35-4.66-1.13-9.16-2.34-13.49-1.21-4.33-2.86-8.16-4.94-11.49,0-.33-.09-.58-.26-.75-.17-.17-.43-.42-.78-.75-1.73-2-3.82-4-6.24-5.99-2.43-2-5.03-3-7.8-3h-1.04c-.35,0-.52,.17-.52,.5-.35,0-.69,.08-1.04,.25-.35,.17-.69,.25-1.04,.25-2.08,1-3.99,2.16-5.72,3.5-1.73,1.33-3.47,2.83-5.2,4.5v62.43c2.77,2.33,5.46,4.33,8.06,5.99,2.6,1.67,5.12,2.5,7.54,2.5s4.77-.83,7.02-2.5c2.25-1.66,4.6-4.33,7.02-7.99h0Z"/><path class="k" d="M1696.93,235.43c0,8.32-3.03,15.32-9.1,20.98-6.07,5.66-13.27,8.49-21.59,8.49s-15.44-2.83-21.33-8.49c-5.9-5.66-8.84-12.65-8.84-20.98v-79.42h35.38v89.91c0,.67,.26,1.25,.78,1.75,.52,.5,1.13,.75,1.82,.75,.35,0,.61-.08,.78-.25l.26-.25c2.08-1.66,3.73-3.58,4.94-5.74,1.21-2.16,1.82-4.41,1.82-6.74h15.09Zm-20.29-143.85c0,5.99-2.25,11.15-6.76,15.48-4.51,4.33-9.89,6.49-16.13,6.49-6.59,0-12.05-2.16-16.39-6.49-4.34-4.33-6.5-9.49-6.5-15.48,0-6.33,2.17-11.65,6.5-15.98,4.34-4.33,9.8-6.49,16.39-6.49,6.24,0,11.62,2.16,16.13,6.49,4.51,4.33,6.76,9.66,6.76,15.98h0Z"/><path class="k" d="M1784.86,235.43c0,8.32-3.04,15.32-9.1,20.98-6.07,5.66-13.27,8.49-21.59,8.49s-15.52-2.83-21.59-8.49c-6.07-5.66-9.1-12.65-9.1-20.98v-67.93h-14.57v-14.48h14.57V69.11h35.9v83.91h23.93v14.48h-23.93v78.42c0,.33,.17,.75,.52,1.25,.35,.5,.87,.75,1.56,.75,.35,.33,.61,.5,.78,.5s.43-.17,.78-.5c2.08-1.33,3.73-3.16,4.94-5.49,1.21-2.33,1.82-4.66,1.82-6.99h15.09Z"/><path class="k" d="M1903.19,418.54c0,9.32-3.55,17.4-10.67,24.22-7.11,6.83-15.7,10.24-25.75,10.24-4.51,0-9.02-.83-13.53-2.5-4.51-1.67-8.5-4.16-11.97-7.49l10.93-9.99c1.73,1.33,3.82,2.58,6.24,3.75,2.43,1.17,4.86,1.75,7.28,1.75h1.56l.81-185.1c-4.51,3.33-9.8,6.16-15.87,8.49-6.07,2.33-12.23,3.5-18.47,3.5-4.51,0-8.85-.75-13.01-2.25-4.16-1.5-8.15-3.75-11.97-6.74-3.47-2.66-6.16-5.91-8.06-9.74-1.91-3.83-2.86-7.91-2.86-12.24v-81.41h36.42v88.91c0,2.33,.95,4.08,2.86,5.24,1.91,1.17,4.08,1.75,6.5,1.75h2.08s.17-.08,.52-.25c.35-.17,.69-.25,1.04-.25,4.16-1.67,8.06-3.83,11.71-6.49,3.64-2.66,6.68-5.66,9.1-8.99v-79.92h35.9l-.81,265.52h0Z"/></g></svg>