<?xml version="1.0" encoding="UTF-8"?><svg id="a" xmlns="http://www.w3.org/2000/svg" xmlns:xlink="http://www.w3.org/1999/xlink" viewBox="0 0 500 500"><defs><style>.d{fill:none;}.e{fill:#676767;}.f{fill:#fefefe;}.g{fill:#fdfdfd;}.h{fill:#818181;}.i{fill:#6c6c6c;}.j{fill:#b8b8b8;}.k{fill:#666;}.l{fill:#dbdbdb;}.m{fill:#c5c5c5;}.n{clip-path:url(#c);}.o{clip-path:url(#b);}</style><clipPath id="b"><rect class="d" width="500" height="500"/></clipPath><clipPath id="c"><rect class="d" width="500" height="500"/></clipPath></defs><g class="o"><g class="n"><path class="h" d="M230.99,461.54c-17.6,.32-34.44-3.72-50.93-9.63-7.04-2.52-14.04-5.13-21.02-7.81-12.6-4.85-23.48-12.49-34.02-20.66-38.56-29.89-69.45-66.22-91.48-109.86-7.95-15.75-13.95-32.21-17.18-49.63-2.68-14.47-2.49-28.91,0-43.36,4.81-27.92,16.38-53.07,31.77-76.58,23.69-36.19,54.06-65.79,89.63-90.24,8.99-6.17,18.79-10.52,28.92-14.28,12.71-4.72,25.4-9.52,38.77-12.12,11.95-2.32,23.97-2.74,36.13-2.07,11.24,.62,22.39,1.73,33.4,3.97,21.31,4.33,41.76,11.27,61.36,20.71,45.02,21.67,81.15,53.74,110.6,93.81,8.81,11.99,15.21,25.09,20.51,38.84,6.57,17.04,12.5,34.29,16.75,52.09,1.51,6.31,1,12.68,.1,18.96-2.41,16.85-7.08,33.12-13.32,48.95-1.97,5-5.09,9.31-8.01,13.71-32.26,48.63-74.35,86.32-126.19,113.09-26.17,13.51-53.57,23.64-82.42,29.74-7.69,1.63-15.44,2.59-23.37,2.37m-116.64-67.96l-.04-.02c-.15,.52,.23,.8,.53,1.09,8.59,7.95,17.66,15.32,28.27,20.41,28.47,13.66,58.26,22.69,89.88,25.15,20.46,1.59,40.69,.26,60.65-4.62,37.89-9.26,69.55-29.08,96.34-57.07,17.59-18.37,31.73-39.19,43.31-61.79,5.32-10.38,10.25-20.95,14.11-31.94,4.35-12.41,5.49-25.46,6.21-38.51,.47-8.63-.54-17.22-1.69-25.76-.9-6.63-2.21-13.2-4.77-19.46-7.13-17.47-17.07-33.25-28.89-47.88-3.93-4.87-7.78-9.81-12.38-14.1l.06,.06c-.32-.84-1-1.4-1.6-2.04-11.28-12.03-23.4-23.14-36.37-33.32-23.82-18.71-49.5-34.22-77.86-45.08-26.15-10.01-53.05-15.51-81.21-12.83-19.01,1.81-36.78,7.5-52.94,17.74-11.55,7.32-22.35,15.73-33.17,24.08-21.34,16.45-38.14,36.54-49.04,61.35-7.28,16.57-12.09,33.86-15.32,51.62-1.38,7.61-2.82,15.22-3.23,22.97-1.05,6.79-1.91,13.61-2.43,20.46-.95,12.6-.83,25.19,.32,37.8,1.52,16.68,4.7,33.01,9.55,49.01,7.4,24.38,21.42,43.84,43.21,57.43,2.43,1.51,5.07,2.69,7.25,4.58,.38,.28,.61,.85,1.24,.67"/><path class="j" d="M271.15,406.52c-6.74,1.73-13.63,2.68-20.5,3.64-15.69,2.2-31.47,3.35-47.31,3.03-26.5-.53-52.44-4.21-77.14-14.41-3.99-1.65-7.92-3.48-11.87-5.22l.04,.02c-.18-.66-.74-.61-1.24-.67-2.19-1.89-4.83-3.06-7.25-4.58-21.8-13.59-35.82-33.05-43.21-57.43-4.85-16-8.03-32.33-9.55-49.01-1.15-12.61-1.27-25.2-.32-37.8,.52-6.85,1.39-13.66,2.43-20.46,1.29-3.51,1.73-7.23,2.66-10.83,6.31-24.58,17.22-46.72,34.68-65.38,7.1-7.59,15.02-14.22,23.71-19.92,.7-.46,1.32-1.17,2.29-1.12-.13,1.49-1.44,2.11-2.33,2.99-13.87,13.6-24.84,29.31-33.89,46.42-7.67,14.52-13.58,29.73-17.99,45.54-3.72,13.32-5.78,26.8-4.45,40.7,.96,9.98,3.67,19.42,7.64,28.58,1.94,4.48,4.57,8.59,6.63,12.99,.04,.35,.14,.66,.48,.84l-.03-.05c-.11,1.54,.65,2.87,1.1,4.26,9.82,29.92,28.74,52.15,56.77,66.43,21.05,10.72,43.78,14.98,67.16,16.32,5.24,1.52,10.46,3.1,15.72,4.54,13.79,3.79,27.74,6.87,41.93,8.71,4.62,.6,9.23,1.26,13.85,1.89"/><path class="j" d="M405.88,139.08c-.51,1.05,.34,1.6,.87,2.21,12.49,14.17,19.29,30.97,22.91,49.26,3.39,17.15,3.83,34.51,3.41,51.91-2.1-11.88-5.88-23.19-11.58-33.84-5.19-9.69-11.53-18.6-18.53-27.05-.02-.52,.12-1.11-.58-1.34l.03,.05c-.47-2.8-1.84-5.24-3.31-7.56-6.09-9.62-13.55-18.06-22.27-25.4-12.68-10.66-27.11-18.13-42.7-23.48-3.83-1.31-7.62-2.91-11.74-3.21l.05,.03c-.17-.7-.77-.43-1.2-.54-2.93-1.32-5.86-2.63-8.78-3.97-15.28-7.02-31.01-12.82-47.16-17.51-7.93-2.3-15.99-4.02-23.97-6.09,14.67-1.25,29.34-1.19,44.02-.22,18.62,1.24,36.94,4.14,54.85,9.48,18.47,5.51,35.84,13.31,51.23,25.13,4.35,3.34,8.41,7.02,12.27,10.93,.58,.58,.94,1.84,2.23,1.27l-.06-.06Z"/><path class="g" d="M113.12,392.91c.5,.06,1.06,0,1.24,.67-.63,.19-.86-.39-1.24-.67"/><path class="e" d="M402.96,181.57c7,8.45,13.35,17.36,18.53,27.05,5.7,10.65,9.48,21.96,11.58,33.84,2.84,20.97-2.03,40.6-10.3,59.65-.42,.27-.46,.69-.46,1.13,0,.09-.03,.18-.09,.25-.48,.39-.81,.89-.94,1.5-.01,.2-.03,.39-.04,.59-.2,.28-.45,.53-.6,.84-3.91,8.06-8.35,15.81-12.92,23.52-1.56,2.64-3.74,5.01-4.29,8.2l.02-.03c-.8-.05-1,.45-1.02,1.11l.02-.04c-.52,.16-.61,.57-.6,1.04l.03-.04c-.36,.09-.49,.36-.55,.7-9.51,13.62-20.01,26.33-32.99,36.85-19.25,15.59-40.98,25.39-65.66,28.48-10.52,1.32-21.01,1.11-31.53,.32-4.62-.63-9.23-1.29-13.85-1.89-14.2-1.84-28.14-4.93-41.93-8.71-5.26-1.44-10.48-3.02-15.72-4.54-1.11-.45-2.21-.96-3.34-1.35-23.68-8.16-46.2-18.72-67.12-32.56-17.67-11.69-33.66-25.27-46.67-42.12-2.76-3.57-5.28-7.31-7.9-10.98l.03,.05c-.05-.34-.12-.67-.48-.84-2.07-4.4-4.69-8.52-6.63-12.99-3.97-9.16-6.68-18.6-7.64-28.58-1.34-13.9,.73-27.38,4.45-40.7,4.41-15.8,10.32-31.02,17.99-45.54,9.05-17.11,20.01-32.82,33.89-46.42,.89-.87,2.19-1.5,2.33-2.99l-.02,.02c.36,.03,.55-.14,.58-.5h-.03c.57,.12,.89-.16,1.08-.67,6.29-5.21,12.51-10.5,19.37-14.98,19.72-12.87,41.2-20.15,64.81-21.1,11.55-.46,22.89,.75,34.17,2.97,.93,.18,1.89,.29,2.83,.43,7.98,2.07,16.05,3.78,23.97,6.09,16.15,4.69,31.88,10.49,47.16,17.51,2.92,1.34,5.86,2.65,8.78,3.97,.28,.44,.71,.55,1.2,.54l-.05-.03c.38,.66,1.11,.78,1.71,1.09,6.86,3.57,13.63,7.28,20.24,11.31,21.13,12.87,40.47,27.91,56.86,46.58,.29,.33,.52,.96,1.21,.67l-.03-.05c-.37,.69,.3,.93,.58,1.34m-298.5-14.91c-.82,.18-.99,.9-1.26,1.53-.12,.18-.23,.36-.35,.54-.38,.22-.53,.57-.59,.98-.49,.72-1.03,1.41-1.46,2.15-11.88,20.43-18.64,42.44-19.76,66.04-.82,17.28,3.23,33.65,10.86,49.13,9.12,18.48,22.58,33.4,38.77,45.83,23.98,18.41,50.25,33.05,77.94,45.02,19.73,8.53,40.2,14.06,62.06,11.98,3.58,.1,7.08-.57,10.62-.98,15.85-1.85,31.29-5.39,46.21-11.08,17.36-6.61,32.94-16.05,46.2-29.13,11.74-11.58,20.56-25.13,26.79-40.36,2.3-5.62,4.54-11.28,5.61-17.3,1.01-3.05,1.77-6.18,2.36-9.33,1.34-7.18,2.93-14.39,2.67-21.7-.42-12.17-3.13-23.93-7.78-35.21-8.3-20.15-21.6-36.66-37.75-50.94-19.69-17.41-41.4-32.05-64.09-45.23-12.73-7.4-26.15-13.36-40.5-16.99-6.94-2.01-14.04-3.21-21.24-3.43-15.06-.47-30.03,.42-44.91,2.98-15.08,2.59-29.6,6.93-43.29,13.76-16.08,8.02-30.02,18.84-41.19,33.01-2.18,2.77-4.68,5.36-5.96,8.76l.02-.03Z"/><path class="j" d="M120.15,125.23c-.19,.5-.51,.78-1.08,.68,.21-.46,.64-.57,1.08-.68"/><path class="j" d="M119.1,125.89c-.02,.36-.22,.53-.58,.5,0-.38,.24-.5,.58-.5"/><path class="j" d="M403.43,338.12c.55-3.19,2.73-5.56,4.29-8.2,4.56-7.7,9.01-15.46,12.92-23.52,.15-.3,.4-.56,.6-.84,.12,2.02-1.05,3.64-1.8,5.34-4.09,9.31-9.06,18.12-15.1,26.31-.25,.34-.6,.6-.9,.89"/><path class="j" d="M421.28,304.98c.13-.61,.46-1.11,.94-1.5,.11,.77-.13,1.31-.94,1.5"/><path class="j" d="M402.43,339.21c.02-.66,.22-1.16,1.02-1.11-.12,.58-.33,1.06-1.02,1.11"/><path class="j" d="M422.32,303.24c0-.44,.04-.86,.46-1.13,.02,.45-.02,.86-.46,1.13"/><path class="j" d="M401.85,340.21c0-.47,.09-.88,.6-1.04,.08,.51-.16,.84-.6,1.04"/><path class="j" d="M401.33,340.87c.06-.33,.19-.6,.55-.7-.03,.35-.25,.56-.55,.7"/><path class="f" d="M74.16,303.6c.36,.17,.43,.49,.48,.84-.34-.18-.44-.49-.48-.84"/><path class="f" d="M402.96,181.57c-.28-.41-.94-.65-.58-1.34,.7,.23,.56,.82,.58,1.34"/><path class="f" d="M322.45,120.66c-.49,0-.92-.1-1.2-.54,.43,.12,1.03-.15,1.2,.54"/><path class="j" d="M270.67,389.88c4.44-.7,8.9-1.33,13.33-2.1,18.19-3.19,35.86-8.1,51.45-18.35,22.51-14.8,42.26-32.61,57.55-55.02,4.57-6.7,8.48-13.76,11.88-21.12,.36-.78,.53-1.66,1.22-2.26-1.07,6.02-3.31,11.69-5.61,17.3-6.23,15.23-15.06,28.78-26.79,40.36-13.26,13.08-28.85,22.53-46.2,29.13-14.93,5.68-30.37,9.22-46.21,11.08-3.53,.41-7.04,1.09-10.62,.98"/><path class="j" d="M261.02,111.61c-9.37-.69-18.76-1.09-28.16-1.08-15.18,.02-30.21,1.35-45.07,4.61-17.67,3.88-33.16,12.31-47.91,22.38-12.18,8.32-23.61,17.55-33.81,28.24-.42,.44-.69,1.31-1.62,.91,1.27-3.4,3.78-5.99,5.96-8.76,11.17-14.18,25.11-25,41.19-33.01,13.69-6.82,28.21-11.17,43.29-13.76,14.88-2.56,29.85-3.45,44.91-2.98,7.2,.22,14.3,1.43,21.24,3.43"/><path class="j" d="M104.46,166.66c.22,1.04-.25,1.51-1.26,1.53,.27-.63,.45-1.35,1.26-1.53"/><path class="j" d="M102.85,168.74c.06,.48-.12,.82-.59,.98,.06-.41,.21-.76,.59-.98"/><path class="i" d="M241.33,141.41c35.1,.43,67.58,9.86,97.28,28.59,12.43,7.84,20.59,19.29,26.17,32.7,5.34,12.83,7.72,26.32,8.84,40.08,.85,10.52,.91,21.04-.51,31.53-2.44,17.99-8.69,34.23-22.32,46.82-11.05,10.21-23.43,18.58-36.71,25.62-17.42,9.23-35.8,15.67-55.26,18.87-17.42,2.86-34.81,2.96-52.11-1.05-22.12-5.12-39-17.69-51.82-36.14-11.24-16.18-18.21-34.12-22.19-53.31-2.07-9.99-3.12-20.11-3.59-30.29-.42-9.17,1.61-17.97,4.52-26.6,4.9-14.53,11.98-27.92,21.07-40.27,11.81-16.02,27.93-25.58,46.68-31.12,13.02-3.85,26.37-5.49,39.96-5.42m4.61,205.33c15.89,0,31.63-1.5,47.15-4.99,12.53-2.82,24.61-6.81,35.67-13.56,9.62-5.86,15.94-13.88,18.31-25.13,2.41-11.49,3.39-23.08,3.46-34.74,.09-16.3-1.26-32.52-4.13-48.59-2.11-11.83-4.91-23.47-9.91-34.49-2.98-6.58-7.49-11.62-13.82-15.13-5.82-3.23-11.98-5.55-18.42-7.13-14.83-3.63-29.89-4.42-45.09-3.75-20.19,.89-39.95,4.11-59.11,10.62-12.71,4.32-24.57,10.04-33.8,20.34-20.1,22.42-27.47,49.03-24.38,78.29,1.84,17.44,9.44,33.21,20.69,46.91,11.74,14.3,26.18,24.16,44.73,27.67,12.8,2.42,25.65,3.66,38.65,3.68"/><path class="l" d="M332.32,253.08c-.28,17.01-2.85,32.8-9.94,47.59-4.67,9.73-10.96,18.15-20.23,24.06-8.62,5.5-18.09,6.96-28.04,5.96-17.24-1.72-34.34-4.31-51.11-8.77-13.91-3.69-27.47-8.3-39.83-15.88-6.73-4.13-12.76-9.04-17.29-15.66-3.96-5.79-5.12-12.08-4.76-19.05,1.17-22.52,10.21-42.22,21.4-61.16,6.13-10.37,13.67-19.68,21.67-28.7,11.13-12.56,25.03-17.31,41.35-16.18,21.07,1.46,39.97,8.75,56.76,21.47,9.86,7.46,17.79,16.62,23.25,27.78,3.33,6.81,4.52,14.22,5.71,21.59,.95,5.85,.73,11.8,1.06,16.94m-84.24,68.91c6.65,2.09,13.5,2.9,20.33,1.68,11.46-2.05,21.87-6.83,31.35-13.53,11.09-7.84,18.83-18.2,22.52-31.37,3-10.71,2.74-21.48,.43-32.28-2.28-10.66-4.68-21.26-11.56-30.15-.15-.2-.2-.48-.31-.71-1.99-3.97-4.19-7.83-6.8-11.42-10.6-14.58-23.85-25.82-41.2-31.44-15.65-5.07-30.19-3.14-43,7.95-9.29,8.05-18.26,16.4-26.27,25.74-8.66,10.1-16.14,20.95-20.93,33.46-2.96,7.74-4.34,15.71-3.47,24.02,.75,7.2,3.52,13.79,6.3,20.34,2.54,5.97,6.71,10.75,11.99,14.52,7.81,5.58,16.7,8.85,25.68,11.94,.89,.69,1.84,1.31,2.65,2.08,5.28,5.03,11.59,7.75,18.77,8.77,4.51,.64,9.02,.04,13.52,.42"/><path class="m" d="M258.3,187h10.37c.54,.19,1.07,.46,1.63,.57,7.03,1.38,13.61,3.87,19.37,8.22,14.8,11.19,23.65,26.25,28.29,44.01,.78,2.97,1.37,5.99,2.05,8.99v8.31c-.35,1.14-.8,2.25-1.03,3.42-1.61,8.25-3.05,16.6-8.87,23.18-3.94,4.46-7.88,8.96-12.26,12.96-12.68,11.54-27.28,19.63-44.08,23.45-7.92,1.8-15.87,2.05-23.78-.08-9.62-2.6-16.33-8.99-21.57-17.1-6.06-9.37-9.16-19.87-11.29-30.71-1.87-9.5-3.86-19-.12-28.53,.12-.31,.12-.68,.13-1.03,.17-5.31,1.91-10.15,4.42-14.75,4.95-9.09,11.75-16.62,19.65-23.19,9.28-7.71,19.52-13.62,31.39-16.38,1.9-.44,3.8-.89,5.7-1.33m-53.3,79.68c.48,6.45,.67,12.94,1.5,19.34,1.88,14.58,12.05,28.5,31.17,26.63,20.6-2.02,39.43-8.94,56.55-20.56,8.5-5.77,14.12-13.74,16.61-23.61,1.06-4.2,.56-8.76,1.08-13.12,.86-7.21-.04-14.23-2.72-20.85-8.57-21.2-25.58-30.9-47.28-33.45-11.11-1.3-21.41,2.06-30.79,7.92-11.16,6.97-19.44,16.29-22.22,29.6-.63,3.02-.1,6.41-1.21,9.19-2.47,6.18-2.43,12.48-2.69,18.91"/><path class="k" d="M211.5,252.19c.48-1.77,1.01-3.52,1.43-5.3,2.56-10.9,7.77-20.41,15.34-28.59,7.49-8.1,17.12-10.38,27.64-9.04,15.04,1.91,27.33,9.2,36.82,20.81,8.76,10.72,10.79,23.34,8.48,36.76-1.08,6.27-3.23,12.17-6.25,17.8-4.87,9.06-12.48,14.09-22.58,14.7-17.87,1.08-34.15-3.95-48.73-14.26-6.18-4.37-9.88-10.54-11.35-18-.14-.7-.53-1.35-.8-2.02v-12.85Zm48.45,40.13c3.87-.32,9.17-.6,14.43-1.21,13.41-1.58,21.16-9.4,22.5-22.76,1.52-15.18-3.27-28.35-13.25-39.67-12.18-13.81-30.74-19.22-49.05-9.97-5.11,2.58-8.68,6.26-10.76,11.48-4.38,10.99-5.31,22.38-3.79,34.03,.81,6.23,2.75,11.9,7.35,16.54,8.63,8.71,19.42,11.31,32.57,11.56"/></g></g></svg>