<svg id="Layer_1" data-name="Layer 1" xmlns="http://www.w3.org/2000/svg" xmlns:xlink="http://www.w3.org/1999/xlink" viewBox="0 0 1881.84 1080"><defs><style>.cls-1{fill:none;}.cls-2{clip-path:url(#clip-path);}.cls-3{fill:#02aeee;}.cls-4{fill:#f5b426;}.cls-5{fill:#fdfdfd;}.cls-6{fill:#ea2662;}.cls-7{fill:#fefefd;}.cls-8{fill:#02a652;}.cls-9{fill:#fef104;}.cls-10{fill:#8ed8f7;}.cls-11{fill:#0685c9;}.cls-12{filter:url(#filter);}</style><clipPath id="clip-path"><rect class="cls-1" x="801.84" width="1080" height="1080"/></clipPath><filter id="filter"><feOffset input="SourceAlpha"/><feGaussianBlur stdDeviation="8" result="blur"/><feFlood flood-color="#fff"/><feComposite operator="in" in2="blur"/><feComposite in="SourceGraphic"/></filter></defs><g class="cls-2"><g class="cls-2"><path class="cls-3" d="M1300.78,996.93c-38,.68-74.39-8-110-20.8q-22.8-8.18-45.39-16.88c-27.21-10.47-50.71-27-73.48-44.62-83.3-64.56-150-143-197.59-237.31-17.16-34-30.13-69.58-37.11-107.21-5.79-31.25-5.38-62.45,0-93.66,10.38-60.31,35.38-114.64,68.62-165.4,51.17-78.18,116.76-142.12,193.6-194.91,19.42-13.34,40.59-22.74,62.46-30.86,27.45-10.19,54.86-20.56,83.74-26.18,25.81-5,51.78-5.92,78-4.46,24.28,1.35,48.36,3.74,72.15,8.58A563.89,563.89,0,0,1,1528.35,108c97.23,46.8,175.28,116.08,238.89,202.63,19,25.89,32.85,54.19,44.31,83.91,14.2,36.81,27,74.07,36.18,112.5,3.26,13.64,2.17,27.38.23,41-5.21,36.4-15.29,71.53-28.77,105.73-4.26,10.8-11,20.1-17.31,29.62Q1697.36,840.85,1529.3,927.57c-56.52,29.19-115.71,51.06-178,64.24-16.62,3.52-33.36,5.6-50.49,5.12M1048.85,850.12l-.08,0c-.33,1.13.49,1.73,1.15,2.34,18.57,17.18,38.15,33.08,61.07,44.08,61.49,29.51,125.85,49,194.15,54.34,44.19,3.43,87.89.55,131-10,81.84-20,150.23-62.82,208.08-123.27,38-39.69,68.54-84.66,93.55-133.47,11.48-22.41,22.14-45.26,30.46-69,9.4-26.8,11.87-55,13.41-83.18,1-18.65-1.15-37.2-3.66-55.64-1.94-14.33-4.78-28.51-10.3-42-15.4-37.74-36.87-71.82-62.4-103.42-8.49-10.51-16.81-21.2-26.74-30.46l.12.13c-.69-1.82-2.17-3-3.45-4.4a701.77,701.77,0,0,0-78.56-72c-51.44-40.41-106.92-73.92-168.17-97.36-56.48-21.62-114.58-33.5-175.4-27.72-41.06,3.91-79.45,16.2-114.35,38.32-25,15.81-48.27,34-71.65,52C1021,224.93,984.7,268.32,961.16,321.93c-15.72,35.79-26.11,73.15-33.09,111.5-3,16.44-6.09,32.88-7,49.63-2.26,14.66-4.14,29.4-5.25,44.18a490.39,490.39,0,0,0,.69,81.65,529.17,529.17,0,0,0,20.63,105.86c16,52.66,46.26,94.69,93.34,124,5.24,3.27,10.94,5.8,15.67,9.88.82.61,1.31,1.85,2.68,1.44"/><path class="cls-4" d="M1387.51,878.08c-14.56,3.73-29.44,5.78-44.28,7.86A643.54,643.54,0,0,1,1241,892.5c-57.23-1.15-113.27-9.11-166.63-31.14-8.63-3.56-17.1-7.51-25.64-11.28l.08,0c-.39-1.43-1.6-1.31-2.68-1.44-4.73-4.08-10.43-6.61-15.67-9.88-47.08-29.36-77.37-71.39-93.34-124a529.17,529.17,0,0,1-20.63-105.86,490.39,490.39,0,0,1-.69-81.65c1.11-14.79,3-29.52,5.25-44.18,2.79-7.59,3.74-15.62,5.73-23.41,13.63-53.1,37.2-100.9,74.91-141.21a279.84,279.84,0,0,1,51.22-43c1.52-1,2.84-2.53,4.93-2.42-.28,3.22-3.1,4.57-5,6.45-30,29.37-53.66,63.3-73.2,100.27a493.75,493.75,0,0,0-38.86,98.36c-8,28.77-12.5,57.89-9.61,87.91,2.08,21.55,7.93,41.95,16.51,61.73,4.2,9.67,9.87,18.55,14.33,28.07a2.08,2.08,0,0,0,1,1.8l-.06-.12c-.23,3.33,1.39,6.21,2.38,9.21,21.2,64.62,62.07,112.64,122.62,143.48,45.48,23.15,94.56,32.35,145.07,35.24,11.32,3.28,22.59,6.69,34,9.8,29.79,8.18,59.91,14.84,90.58,18.82,10,1.29,19.94,2.71,29.91,4.08"/><path class="cls-4" d="M1678.54,300.41c-1.11,2.27.73,3.46,1.88,4.77,27,30.6,41.68,66.89,49.49,106.4,7.34,37.05,8.27,74.53,7.37,112.13a243.66,243.66,0,0,0-25-73.09c-11.21-20.94-24.91-40.17-40-58.43,0-1.12.26-2.4-1.25-2.9l.06.1c-1-6-4-11.32-7.15-16.32a237.52,237.52,0,0,0-48.1-54.85c-27.38-23-58.56-39.17-92.23-50.71-8.27-2.84-16.45-6.3-25.35-6.94l.11.06c-.36-1.5-1.66-.92-2.59-1.17-6.32-2.85-12.66-5.67-19-8.57a732.63,732.63,0,0,0-101.86-37.83c-17.12-5-34.55-8.69-51.79-13.15a626.36,626.36,0,0,1,95.1-.47c40.22,2.68,79.8,8.94,118.46,20.47,39.9,11.9,77.41,28.75,110.65,54.28a258,258,0,0,1,26.51,23.6c1.25,1.26,2,4,4.82,2.75Z"/><path class="cls-5" d="M1046.17,848.68c1.08.13,2.29,0,2.68,1.44-1.37.41-1.86-.83-2.68-1.44"/><path class="cls-6" d="M1672.24,392.19c15.12,18.25,28.82,37.49,40,58.43a243.66,243.66,0,0,1,25,73.09c6.12,45.28-4.39,87.7-22.26,128.84a2.53,2.53,0,0,0-1,2.44.83.83,0,0,1-.19.54,5.6,5.6,0,0,0-2,3.24l-.09,1.27a12.52,12.52,0,0,0-1.3,1.81c-8.44,17.4-18,34.16-27.89,50.79-3.38,5.7-8.09,10.82-9.28,17.7l0-.05c-1.72-.11-2.15,1-2.2,2.4l.05-.07c-1.12.35-1.32,1.23-1.31,2.24l.06-.08a1.61,1.61,0,0,0-1.18,1.5c-20.54,29.41-43.22,56.88-71.26,79.59-41.58,33.69-88.51,54.84-141.82,61.52-22.72,2.84-45.4,2.4-68.12.69-10-1.37-19.93-2.79-29.91-4.08-30.67-4-60.78-10.64-90.58-18.82-11.36-3.11-22.63-6.52-34-9.8-2.4-1-4.77-2.07-7.22-2.91-51.14-17.63-99.78-40.43-145-70.32-38.17-25.26-72.69-54.6-100.81-91-6-7.7-11.39-15.79-17.07-23.71l.06.12a2,2,0,0,0-1-1.8c-4.46-9.52-10.13-18.4-14.33-28.07-8.58-19.78-14.43-40.18-16.51-61.73-2.89-30,1.58-59.14,9.61-87.91a493.75,493.75,0,0,1,38.86-98.36c19.54-37,43.23-70.9,73.2-100.27,1.92-1.88,4.74-3.23,5-6.45l0,0a1,1,0,0,0,1.24-1.09l-.06,0a1.93,1.93,0,0,0,2.33-1.47c13.58-11.26,27-22.68,41.85-32.35,42.59-27.79,89-43.53,140-45.58,24.94-1,49.44,1.63,73.81,6.41,2,.4,4.08.63,6.11.94,17.24,4.46,34.67,8.17,51.79,13.15a732.63,732.63,0,0,1,101.86,37.83c6.31,2.9,12.65,5.72,19,8.57a2.73,2.73,0,0,0,2.59,1.17l-.11-.06c.83,1.42,2.4,1.68,3.7,2.36,14.81,7.7,29.45,15.73,43.71,24.42,45.64,27.81,87.43,60.29,122.81,100.61.64.72,1.13,2.08,2.61,1.43l-.06-.1c-.79,1.49.64,2,1.25,2.9M1027.48,360c-1.77.4-2.15,1.94-2.73,3.31-.26.39-.51.78-.76,1.17a2.73,2.73,0,0,0-1.27,2.12c-1.06,1.55-2.22,3-3.16,4.66-25.66,44.12-40.26,91.67-42.68,142.65-1.77,37.33,7,72.69,23.46,106.11,19.69,39.93,48.78,72.16,83.75,99,51.81,39.77,108.53,71.38,168.35,97.25,42.61,18.43,86.83,30.38,134,25.88,7.73.22,15.31-1.23,22.93-2.12,34.23-4,67.59-11.66,99.83-23.93,37.49-14.27,71.15-34.67,99.8-62.93,25.34-25,44.41-54.27,57.87-87.17,5-12.13,9.8-24.36,12.12-37.37a152.57,152.57,0,0,0,5.1-20.16c2.9-15.51,6.32-31.08,5.78-46.88a218.32,218.32,0,0,0-16.81-76.06c-17.93-43.52-46.65-79.19-81.54-110-42.53-37.6-89.43-69.23-138.43-97.7-27.5-16-56.48-28.85-87.49-36.7a185.74,185.74,0,0,0-45.87-7.42,482.11,482.11,0,0,0-97,6.44c-32.58,5.6-63.93,15-93.5,29.71-34.74,17.32-64.84,40.69-89,71.31-4.71,6-10.11,11.58-12.86,18.92Z"/><path class="cls-4" d="M1061.35,270.49A1.93,1.93,0,0,1,1059,272a3,3,0,0,1,2.33-1.47"/><path class="cls-4" d="M1059.08,271.93a1,1,0,0,1-1.24,1.09c0-.83.52-1.08,1.24-1.09"/><path class="cls-4" d="M1673.25,730.34c1.19-6.88,5.9-12,9.28-17.7,9.85-16.63,19.45-33.39,27.9-50.79a11.73,11.73,0,0,1,1.29-1.81c.26,4.37-2.28,7.85-3.9,11.54a296.33,296.33,0,0,1-32.62,56.84,16.1,16.1,0,0,1-2,1.92"/><path class="cls-4" d="M1711.81,658.77a5.6,5.6,0,0,1,2-3.24c.23,1.65-.29,2.83-2,3.24"/><path class="cls-4" d="M1671.09,732.69c.05-1.43.48-2.51,2.2-2.4-.25,1.24-.72,2.29-2.2,2.4"/><path class="cls-4" d="M1714,655a2.53,2.53,0,0,1,1-2.44,2.4,2.4,0,0,1-1,2.44"/><path class="cls-4" d="M1669.83,734.86c0-1,.19-1.89,1.31-2.24a2,2,0,0,1-1.31,2.24"/><path class="cls-4" d="M1668.71,736.28a1.61,1.61,0,0,1,1.18-1.5,1.79,1.79,0,0,1-1.18,1.5"/><path class="cls-7" d="M962,655.77a2,2,0,0,1,1,1.8,2.08,2.08,0,0,1-1-1.8"/><path class="cls-7" d="M1672.24,392.19c-.61-.88-2-1.41-1.25-2.89,1.51.49,1.2,1.77,1.25,2.89"/><path class="cls-7" d="M1498.33,260.63a2.74,2.74,0,0,1-2.59-1.17c.93.25,2.23-.33,2.59,1.17"/><path class="cls-4" d="M1386.48,842.14c9.6-1.5,19.23-2.86,28.8-4.54,39.3-6.89,77.47-17.5,111.14-39.63,48.62-32,91.29-70.45,124.31-118.86a313.21,313.21,0,0,0,25.66-45.61c.78-1.68,1.16-3.58,2.64-4.88-2.32,13-7.16,25.24-12.12,37.37-13.46,32.9-32.52,62.17-57.87,87.17-28.65,28.26-62.31,48.66-99.8,62.93C1477,828.37,1443.64,836,1409.42,840c-7.63.89-15.21,2.34-22.94,2.12"/><path class="cls-4" d="M1365.64,241.09c-20.24-1.5-40.51-2.37-60.82-2.34-32.78,0-65.25,2.91-97.36,10-38.17,8.38-71.62,26.58-103.49,48.35-26.32,18-51,37.92-73,61-.9.95-1.49,2.83-3.49,2,2.75-7.34,8.15-12.94,12.86-18.92,24.13-30.62,54.23-54,89-71.31,29.57-14.74,60.92-24.11,93.5-29.71a482.11,482.11,0,0,1,97-6.44,185.74,185.74,0,0,1,45.87,7.42"/><path class="cls-4" d="M1027.48,360c.46,2.24-.55,3.26-2.73,3.31.58-1.37,1-2.91,2.73-3.31"/><path class="cls-4" d="M1024,364.47a1.78,1.78,0,0,1-1.27,2.12,2.73,2.73,0,0,1,1.27-2.12"/><path class="cls-8" d="M1323.12,305.44c75.8.93,146,21.29,210.13,61.75,26.84,16.92,44.47,41.66,56.53,70.62,11.54,27.7,16.67,56.85,19.09,86.56,1.84,22.74,2,45.46-1.11,68.11-5.26,38.86-18.77,73.94-48.21,101.14-23.86,22-50.61,40.15-79.31,55.35-37.62,19.93-77.33,33.85-119.37,40.75-37.62,6.18-75.18,6.39-112.57-2.27-47.77-11.07-84.24-38.22-111.93-78.06-24.29-34.94-39.34-73.7-47.92-115.16a416,416,0,0,1-7.76-65.43c-.9-19.81,3.48-38.81,9.77-57.45a316.84,316.84,0,0,1,45.51-87c25.5-34.61,60.32-55.26,100.84-67.23,28.13-8.31,57-11.87,86.31-11.71m10,443.51c34.32,0,68.32-3.25,101.83-10.78,27.06-6.09,53.16-14.72,77-29.28,20.77-12.67,34.43-30,39.54-54.29,5.21-24.81,7.33-49.85,7.46-75A578.91,578.91,0,0,0,1550,474.61c-4.56-25.54-10.61-50.69-21.4-74.5a68.43,68.43,0,0,0-29.85-32.67A160.18,160.18,0,0,0,1459,352c-32-7.85-64.55-9.55-97.39-8.1-43.61,1.92-86.3,8.86-127.67,22.94-27.45,9.33-53.07,21.68-73,43.93-43.41,48.43-59.33,105.91-52.67,169.12,4,37.68,20.4,71.73,44.7,101.33,25.36,30.89,56.55,52.19,96.61,59.76a451.32,451.32,0,0,0,83.5,7.94"/><path class="cls-9" d="M1519.64,546.65c-.61,36.75-6.16,70.84-21.48,102.79-10.07,21-23.67,39.21-43.69,52-18.61,11.87-39.07,15-60.57,12.88-37.23-3.73-74.17-9.32-110.4-18.94-30-8-59.34-17.93-86-34.3-14.53-8.91-27.57-19.53-37.34-33.82-8.55-12.51-11.07-26.09-10.29-41.14,2.53-48.65,22.06-91.2,46.24-132.11,13.23-22.41,29.52-42.52,46.8-62,24-27.12,54.08-37.4,89.33-35,45.5,3.15,86.33,18.9,122.61,46.37,21.29,16.12,38.42,35.89,50.21,60,7.19,14.71,9.76,30.71,12.33,46.64,2,12.64,1.58,25.48,2.28,36.6m-182,148.85c14.37,4.51,29.17,6.26,43.92,3.62,24.74-4.42,47.24-14.75,67.72-29.22,24-16.94,40.66-39.32,48.65-67.77,6.49-23.13,5.92-46.4.93-69.74-4.92-23-10.11-45.91-25-65.13a9.33,9.33,0,0,1-.68-1.54,172.85,172.85,0,0,0-14.7-24.67c-22.9-31.5-51.5-55.78-89-67.92-33.81-10.94-65.21-6.79-92.88,17.17-20.06,17.38-39.44,35.43-56.75,55.61-18.7,21.81-34.85,45.25-45.2,72.28-6.4,16.71-9.37,33.94-7.49,51.88,1.63,15.56,7.6,29.79,13.62,43.93,5.49,12.89,14.49,23.22,25.89,31.37,16.87,12.06,36.08,19.13,55.47,25.79,1.91,1.49,4,2.83,5.72,4.5,11.41,10.86,25,16.74,40.54,18.93,9.74,1.38,19.49.1,29.2.91"/><path class="cls-10" d="M1359.76,403.92h22.39a25.93,25.93,0,0,0,3.53,1.23c15.19,3,29.4,8.35,41.83,17.75,32,24.18,51.09,56.71,61.11,95.06,1.67,6.42,3,12.94,4.42,19.42v18a69.42,69.42,0,0,0-2.22,7.38c-3.47,17.82-6.59,35.84-19.16,50.07-8.51,9.62-17,19.35-26.49,28-27.38,24.93-58.92,42.4-95.22,50.65-17.12,3.89-34.29,4.43-51.36-.18-20.77-5.61-35.26-19.42-46.58-36.93-13.08-20.24-19.78-42.93-24.39-66.33-4-20.52-8.34-41.05-.26-61.63a6.74,6.74,0,0,0,.27-2.21c.36-11.48,4.12-21.92,9.55-31.88,10.7-19.62,25.39-35.89,42.45-50.08,20-16.66,42.17-29.41,67.81-35.38l12.32-2.87M1244.62,576c1,13.93,1.45,28,3.23,41.78,4.05,31.49,26,61.57,67.33,57.52,44.49-4.36,85.18-19.3,122.15-44.41,18.36-12.47,30.5-29.67,35.88-51,2.28-9.06,1.21-18.92,2.33-28.34a90.36,90.36,0,0,0-5.87-45c-18.51-45.79-55.26-66.75-102.11-72.25-24-2.81-46.25,4.45-66.51,17.11-24.11,15-42,35.19-48,63.93-1.37,6.53-.22,13.85-2.62,19.85-5.33,13.34-5.24,27-5.8,40.85"/><path class="cls-11" d="M1258.68,544.72c1-3.81,2.17-7.6,3.07-11.44a135.36,135.36,0,0,1,33.13-61.76c16.19-17.5,37-22.43,59.71-19.54,32.48,4.13,59,19.87,79.55,45,18.92,23.15,23.31,50.41,18.31,79.41a126.2,126.2,0,0,1-13.51,38.44c-10.51,19.58-27,30.43-48.76,31.75-38.6,2.32-73.77-8.55-105.26-30.81-13.35-9.44-21.33-22.76-24.52-38.88a26.07,26.07,0,0,0-1.72-4.37Zm104.64,86.69c8.36-.69,19.81-1.29,31.18-2.62,29-3.41,45.71-20.31,48.61-49.17,3.29-32.79-7.06-61.24-28.63-85.7-26.32-29.84-66.41-41.52-106-21.53-11,5.58-18.74,13.52-23.24,24.81-9.45,23.74-11.46,48.34-8.17,73.5,1.75,13.46,5.93,25.71,15.86,35.73,18.64,18.82,41.94,24.44,70.35,25"/></g></g><g class="cls-12"><polygon points="288.19 730.3 353.81 730.3 353.81 745.38 270.64 745.38 270.64 624.07 351.15 624.07 351.15 638.98 288.19 638.98 288.19 675.3 347.42 675.3 347.42 689.86 288.19 689.86 288.19 730.3 288.19 730.3"/><polygon points="487.88 721.05 488.23 721.05 488.23 624.07 505.79 624.07 505.79 745.38 483.62 745.38 417.3 646.34 416.94 646.34 416.94 745.38 399.38 745.38 399.38 624.07 422.26 624.07 487.88 721.05 487.88 721.05"/><path d="M666.1,726.53a55.91,55.91,0,0,1-19.33,15.85q-11.88,6.07-28.55,6.08a72.75,72.75,0,0,1-26.51-4.71,62.1,62.1,0,0,1-20.93-13.19A60.71,60.71,0,0,1,557,710.34a69.23,69.23,0,0,1,.09-51.74,58.56,58.56,0,0,1,14-20.05,64.16,64.16,0,0,1,21.19-12.94,74.7,74.7,0,0,1,26.6-4.62,71.91,71.91,0,0,1,13,1.2,66.18,66.18,0,0,1,12.59,3.59,52.7,52.7,0,0,1,11,5.91,39.53,39.53,0,0,1,8.52,8.14l-13.84,10.28a34.31,34.31,0,0,0-13-10.19,41.56,41.56,0,0,0-18.18-4,48.67,48.67,0,0,0-19.77,3.86,44.73,44.73,0,0,0-15,10.53,47.3,47.3,0,0,0-9.57,15.51,52.06,52.06,0,0,0-3.37,18.76,55,55,0,0,0,3.28,19.19,45.69,45.69,0,0,0,9.4,15.51,43.18,43.18,0,0,0,14.89,10.36,49.08,49.08,0,0,0,19.6,3.77,44.64,44.64,0,0,0,19.33-4.11,36.89,36.89,0,0,0,14.36-12l14,9.25Z"/><path d="M830.67,684.55a64.53,64.53,0,0,1-5,25.79,61.17,61.17,0,0,1-13.92,20.22,62.8,62.8,0,0,1-21.11,13.19,77.21,77.21,0,0,1-53.11,0,63,63,0,0,1-21-13.19,60.23,60.23,0,0,1-13.84-20.22,69.94,69.94,0,0,1,0-51.74,58.28,58.28,0,0,1,13.84-20.05,63.33,63.33,0,0,1,21-12.94,78.63,78.63,0,0,1,53.11,0,63.19,63.19,0,0,1,21.11,12.94,59.16,59.16,0,0,1,13.92,20.05,64.9,64.9,0,0,1,5,25.95Zm-19,0a52.28,52.28,0,0,0-3.37-18.76,47.49,47.49,0,0,0-9.58-15.51,44.79,44.79,0,0,0-15-10.53A48.75,48.75,0,0,0,764,635.89a48.2,48.2,0,0,0-19.59,3.86,43.87,43.87,0,0,0-14.9,10.53A48.3,48.3,0,0,0,720,665.79a52.28,52.28,0,0,0-3.37,18.76,53.46,53.46,0,0,0,3.37,19,46.27,46.27,0,0,0,9.58,15.51,44.53,44.53,0,0,0,14.9,10.36,48.38,48.38,0,0,0,19.5,3.77,49.69,49.69,0,0,0,19.69-3.77,44.15,44.15,0,0,0,15.07-10.36,46.27,46.27,0,0,0,9.58-15.51,53.46,53.46,0,0,0,3.37-19Z"/><path d="M924.66,748.46q-12.4,0-21.63-4a43.91,43.91,0,0,1-15.25-10.71,43.43,43.43,0,0,1-9-15.34,55.5,55.5,0,0,1-2.92-17.9V624.07h17.55v75.39a47.86,47.86,0,0,0,1.6,12.25,30.69,30.69,0,0,0,5.23,10.88,26.24,26.24,0,0,0,9.58,7.71q5.94,2.91,14.8,2.91a33.65,33.65,0,0,0,14.72-2.91,26.15,26.15,0,0,0,9.67-7.71,30.86,30.86,0,0,0,5.23-10.88,48.29,48.29,0,0,0,1.59-12.25V624.07h17.56v76.42a55.5,55.5,0,0,1-2.92,17.9,43.43,43.43,0,0,1-9,15.34,43.91,43.91,0,0,1-15.25,10.71q-9.22,4-21.64,4Z"/><polygon points="1113.71 721.05 1114.06 721.05 1114.06 624.07 1131.62 624.07 1131.62 745.38 1109.45 745.38 1043.13 646.34 1042.77 646.34 1042.77 745.38 1025.21 745.38 1025.21 624.07 1048.09 624.07 1113.71 721.05 1113.71 721.05"/><polygon points="1228.27 745.38 1210.71 745.38 1210.71 638.98 1170.45 638.98 1170.45 624.07 1268.52 624.07 1268.52 638.98 1228.27 638.98 1228.27 745.38 1228.27 745.38"/><polygon points="1324.92 730.3 1390.53 730.3 1390.53 745.38 1307.36 745.38 1307.36 624.07 1387.87 624.07 1387.87 638.98 1324.92 638.98 1324.92 675.3 1384.15 675.3 1384.15 689.86 1324.92 689.86 1324.92 730.3 1324.92 730.3"/><path d="M1453.67,745.38h-17.56V624.07h40.26a79.71,79.71,0,0,1,17.2,1.8,43.28,43.28,0,0,1,14.27,5.74,28.62,28.62,0,0,1,9.67,10.36q3.54,6.43,3.54,15.68,0,13.36-8.51,21.59t-22,10.45l35.12,55.69h-21.29l-31.92-54h-18.79v54Zm0-68.2h20.21a61.3,61.3,0,0,0,11.53-1,29.79,29.79,0,0,0,9.31-3.34,17.89,17.89,0,0,0,6.3-6,19.41,19.41,0,0,0,0-18.33,17.62,17.62,0,0,0-6.12-5.92,27.57,27.57,0,0,0-9-3.17,60.69,60.69,0,0,0-10.82-.94h-21.45v38.72Z"/><path d="M1629.59,646.52a27.79,27.79,0,0,0-10.11-8.14,31.81,31.81,0,0,0-14.37-3.17,34.7,34.7,0,0,0-8.6,1.11,24,24,0,0,0-7.89,3.6,20.19,20.19,0,0,0-5.76,6.17,16.74,16.74,0,0,0-2.22,8.82,15.7,15.7,0,0,0,2,8.31,18.18,18.18,0,0,0,5.5,5.66,35.59,35.59,0,0,0,8.16,3.94q4.7,1.62,10,3.34,6.39,1.88,13,4.28a46.58,46.58,0,0,1,11.88,6.34,31.45,31.45,0,0,1,8.69,9.85q3.38,5.91,3.37,15a34.86,34.86,0,0,1-3.63,16.37,33.94,33.94,0,0,1-9.67,11.48,41.77,41.77,0,0,1-13.92,6.76,59.26,59.26,0,0,1-16.23,2.23,61,61,0,0,1-23-4.45,45.5,45.5,0,0,1-18.36-13.2l13.66-11.13A33,33,0,0,0,1584,730a34.41,34.41,0,0,0,25,2.74,25.31,25.31,0,0,0,8.07-3.77,20.91,20.91,0,0,0,6-6.43,17.93,17.93,0,0,0,2.3-9.33,16.55,16.55,0,0,0-2.39-9.17,20.74,20.74,0,0,0-6.48-6.25,43.29,43.29,0,0,0-9.48-4.37q-5.42-1.8-11.44-3.69a101.65,101.65,0,0,1-11.88-4.19,41.55,41.55,0,0,1-10.47-6.34,29.59,29.59,0,0,1-7.45-9.51q-2.84-5.65-2.83-14a30.36,30.36,0,0,1,3.81-15.6,34,34,0,0,1,9.93-10.79,41.86,41.86,0,0,1,13.83-6.25,62.25,62.25,0,0,1,15.52-2,55.49,55.49,0,0,1,20.57,3.77,41,41,0,0,1,15.43,10.1l-12.41,11.66Z"/><path d="M247.16,679.31q0,45.66-37.17,67.84a165.63,165.63,0,0,1-81.39,23.47h-7.36a206.14,206.14,0,0,1-34.5-2.9,124.22,124.22,0,0,1-31.15-9.32q-23.43-10.29-38.84-33.11T0,677.38v-5.79a73.9,73.9,0,0,1,4-24.43,68.57,68.57,0,0,1,12.73-21.87,59.17,59.17,0,0,1,21.09-16.07,60.24,60.24,0,0,1,24.45-5.15A56.2,56.2,0,0,1,92.1,614q13.73,9.33,17.08,28.62a11.56,11.56,0,0,1,.67,3.85v3.22a38.75,38.75,0,0,1-10,26.69q-10,11.25-24.11,10.61a36,36,0,0,1-5-.33,25.16,25.16,0,0,1-4.36-1c-1.78-.86-3.46-1.61-5-2.25a25,25,0,0,1-5-2.9q-7.36-5.13-10.71-10.93a22.82,22.82,0,0,1-3.35-11.57,17.88,17.88,0,0,1,6-13.83q6-5.46,15.4-5.46A28.56,28.56,0,0,1,73,640.41a39.09,39.09,0,0,1,9.38,4.82,18.2,18.2,0,0,1,4.69,3.21,26.74,26.74,0,0,1,3.35,3.86v-2.57q0-13.5-8.71-20.26a31.91,31.91,0,0,0-20.1-6.75H58.94a6.17,6.17,0,0,0-2.68.65,33.13,33.13,0,0,0-13.06,4.18,47,47,0,0,0-11.72,9.32,49.32,49.32,0,0,0-9.71,16.72,58.34,58.34,0,0,0-3,18.65V678a78.48,78.48,0,0,0,14.41,37.62q12.39,17.68,30.47,26a125.74,125.74,0,0,0,26.8,8.68,142.39,142.39,0,0,0,28.8,2.9q30.13,0,54.25-15.11t24.12-50.48q0-34.08-23.45-59.16a542.48,542.48,0,0,0-51.57-48.23l-1.68-1.6a8.85,8.85,0,0,0-2.34-1.61A450.1,450.1,0,0,1,64.3,525.3Q40.19,498,40.19,459.39q0-39.86,28.8-60.44a108,108,0,0,1,64.3-20.58h7.37a127.63,127.63,0,0,1,31.82,6.76A93.92,93.92,0,0,1,201,400.88V388.66h19.42V487H201V428.53a58.64,58.64,0,0,0-23.45-20.9A82.85,82.85,0,0,0,146.69,399a12.13,12.13,0,0,0-3.68-.64h-3.69a61.75,61.75,0,0,0-37.17,11.89q-16.41,11.9-16.41,37.62,0,24.44,14.06,41.15a266.08,266.08,0,0,0,31.48,31.51,10.29,10.29,0,0,1,1.34,1.61,5.1,5.1,0,0,0,2,1.61q4,3.21,7.71,6.75l7.7,7.39q6,6.43,12.73,12.54t13.39,12.54a5.38,5.38,0,0,0,1.34,1,5.08,5.08,0,0,1,1.34,1,523.16,523.16,0,0,1,46.89,49.84q21.44,26,21.43,64.62Z"/><path d="M388.78,500.17A79.64,79.64,0,0,1,360,521.71a83.77,83.77,0,0,1-34.16,7.39h-4a13.08,13.08,0,0,1-4-.64A80.09,80.09,0,0,1,294,522a81.61,81.61,0,0,1-21.77-14.15,70,70,0,0,1-17.75-24.11,66.68,66.68,0,0,1-5.7-26.69q.68-28.29,22.44-50.15t56.6-22.51h2a72.15,72.15,0,0,1,31.82,8.36q14.4,7.73,17.08,25.72v5.15q0,19.29-15.07,31.18a113.8,113.8,0,0,1-33.83,18.33c-3.57,1.29-7.14,2.46-10.72,3.54s-6.92,2-10,2.89l-2,.64a44.69,44.69,0,0,0,1.67,5.15,46.65,46.65,0,0,1,1.68,5.14,58.07,58.07,0,0,0,8.37,13.83q5,6.11,13.73,5.46h2a57.64,57.64,0,0,0,21.77-7.07,66.78,66.78,0,0,0,17.75-14.15l14.73,11.58Zm-29.47-79.74a14.4,14.4,0,0,0-6.7-11.57,28.16,28.16,0,0,0-12.72-4.5,6.9,6.9,0,0,0-3-.65h-3q-10.73,0-17.42,10.29a67.28,67.28,0,0,0-9.37,22.51,65.51,65.51,0,0,0-2.68,12.54,98,98,0,0,0-.67,10.61v1.92c3.12-.85,6.7-1.82,10.71-2.89a88.52,88.52,0,0,0,12.06-4.18,81.57,81.57,0,0,0,22.77-12.22q10-7.71,10.05-19.29v-2.57Z"/><path d="M542.84,433.93a16.48,16.48,0,0,1-6.7,4.83,21.48,21.48,0,0,1-8,1.6q-3.36-.63-6.37-1.28a22.29,22.29,0,0,1-6.36-2.57A29.14,29.14,0,0,1,505,426.86a36,36,0,0,1-5.7-13.5v-5.15a4.91,4.91,0,0,1,.67-1.93,5.22,5.22,0,0,1,.34-1.6,5.21,5.21,0,0,0,.33-1.61h-3.35a32.79,32.79,0,0,0-4.35.32,50,50,0,0,0-5,1,33.65,33.65,0,0,0-5,1.6,28.73,28.73,0,0,0-4.35,2.25,34.62,34.62,0,0,1,2,6.75,39.47,39.47,0,0,1,.67,7.4V529.1H435.67V407.57a2,2,0,0,1-1.34-.64,1.82,1.82,0,0,1-.67-1.29h-2c0,.43-.11.64-.33.64H431a18.76,18.76,0,0,0-8.7,16.08H402.85q0-17.36,12.39-27.65t27.13-10.29a44.65,44.65,0,0,1,13.06,1.93,29.05,29.05,0,0,1,11.72,7.07,73.51,73.51,0,0,1,16.08-6.75,63.44,63.44,0,0,1,33.49,0,61.13,61.13,0,0,1,15.41,6.75,29.31,29.31,0,0,1,10.38,9.65,35.86,35.86,0,0,1,5.69,13.5v3.22a26.91,26.91,0,0,1-1,7.39,15.27,15.27,0,0,1-4.36,6.75Z"/><path d="M707,500.17a79.81,79.81,0,0,1-28.8,21.54A83.85,83.85,0,0,1,644,529.1h-4a13.08,13.08,0,0,1-4-.64A80.07,80.07,0,0,1,612.17,522a81.77,81.77,0,0,1-21.77-14.15,70,70,0,0,1-17.75-24.11A66.67,66.67,0,0,1,567,457.08q.66-28.29,22.43-50.15T646,384.42h2a72.15,72.15,0,0,1,31.82,8.36q14.4,7.73,17.08,25.72v5.15q0,19.29-15.07,31.18A113.68,113.68,0,0,1,648,473.16c-3.57,1.29-7.14,2.46-10.71,3.54s-6.92,2-10,2.89l-2,.64a46.72,46.72,0,0,0,1.67,5.15,46.65,46.65,0,0,1,1.68,5.14A58.07,58.07,0,0,0,637,504.35q5,6.11,13.73,5.46h2a57.64,57.64,0,0,0,21.77-7.07,66.78,66.78,0,0,0,17.75-14.15L707,500.17Zm-29.47-79.74q-.68-7.71-6.7-11.57a28.2,28.2,0,0,0-12.73-4.5,6.85,6.85,0,0,0-3-.65h-3q-10.71,0-17.41,10.29a67.3,67.3,0,0,0-9.38,22.51,66.28,66.28,0,0,0-2.68,12.54,98,98,0,0,0-.67,10.61v1.92q4.7-1.27,10.72-2.89a87.93,87.93,0,0,0,12-4.18,81.77,81.77,0,0,0,22.78-12.22q10.05-7.71,10.05-19.29v-2.57Z"/><path d="M926,490.52a35.48,35.48,0,0,1-11.72,27,40.82,40.82,0,0,1-55.6,0,35.48,35.48,0,0,1-11.72-27V414.64q0-5.14-3.68-7.39a15.76,15.76,0,0,0-8.38-2.25h-1.67a5.59,5.59,0,0,0-2.35.64c-.44-.43-1.56-.11-3.35,1s-3.57,2.25-5.35,3.53a1.42,1.42,0,0,0-1,.32l-1,1a24.43,24.43,0,0,0-4.69,2.89c-1.34,1.07-2.24,1.82-2.68,2.25a52.47,52.47,0,0,0-9.38,10.29A33.25,33.25,0,0,0,798,439.08v90l-46.21-.64V407.57a2,2,0,0,1-1.35-.64,1.84,1.84,0,0,1-.66-1.29h-2c0,.43-.12.64-.34.64h-.33a18.94,18.94,0,0,0-6.37,6.76,18.72,18.72,0,0,0-2.34,9.32H719Q719,405,731.06,395a44.24,44.24,0,0,1,26.79-10.61h2a41,41,0,0,1,20.43,5.47q9.72,5.46,14.4,17.68a73.18,73.18,0,0,1,13.4-11.25,63.25,63.25,0,0,1,15.41-7.4,88.59,88.59,0,0,1,11.38-3.21,57.5,57.5,0,0,1,12.06-1.29A52.19,52.19,0,0,1,864,387.31a53,53,0,0,1,15.07,8,39.29,39.29,0,0,1,10.72,12.54,33.78,33.78,0,0,1,4,16.4v80.38a4.41,4.41,0,0,0,.33,1.93c.22.43,1,.64,2.35.64,1.78,0,3.46-1,5-2.89a14.28,14.28,0,0,0,3-6.11,16.16,16.16,0,0,0,1.68-4.5,19.77,19.77,0,0,0,.33-3.22Z"/><path d="M1123.65,244.24l-13.39,13.51a30.37,30.37,0,0,0-8-5.47,22.89,22.89,0,0,0-10-2.25h-2c0,54.87-3.43,33.33-3.43,88.42V504c0,2.15.78,3.11,2.35,2.9a11.58,11.58,0,0,0,5-2.25,26.82,26.82,0,0,0,4-5.15,19.73,19.73,0,0,0,2.68-6.43v-2.57h18.75q0,17.37-12.39,27.65a42.38,42.38,0,0,1-27.79,10.29h-2.68a6.23,6.23,0,0,1-2.68-.64,33.35,33.35,0,0,1-13.06-4.18,41.78,41.78,0,0,1-11.73-10,57.71,57.71,0,0,1-19.76,11.9,65.2,65.2,0,0,1-21.1,3.53q-26.11-.65-46.55-21.86t-20.43-50.8q0-28.29,20.1-50.48t46.88-21.54a51.87,51.87,0,0,1,8,.64q4,.65,8.71,1.29a62.7,62.7,0,0,1,8,3.22,73.75,73.75,0,0,1,8,4.5c0-32.58,3.43-15.34,3.43-47.7v-70q0-20.56,14.73-32.79t32.15-12.22a51.9,51.9,0,0,1,17.08,2.9,37.39,37.39,0,0,1,15.07,10ZM1041.19,495V418.5q-6-7.06-11.39-10a17.88,17.88,0,0,0-10.72-2.25q-11.39,0-18.75,12.87a67.83,67.83,0,0,0-8.71,28.29,19,19,0,0,0-.67,4.82v4.18a79,79,0,0,0,2.68,21.22,58.07,58.07,0,0,0,7.37,16.72,1.27,1.27,0,0,0,.33,1l1,1a39.09,39.09,0,0,0,7.36,7.71,15.52,15.52,0,0,0,10,3.86h1.34a2,2,0,0,0,1.34-.64,3.13,3.13,0,0,0,1.34-.32,3,3,0,0,1,1.34-.32,35.7,35.7,0,0,0,8.71-5.15q4-3.21,7.37-6.43Z"/><path d="M1218.69,490.52a35.48,35.48,0,0,1-11.72,27,39.43,39.43,0,0,1-27.8,10.93,38.24,38.24,0,0,1-27.46-10.93,35.92,35.92,0,0,1-11.39-27V388.28h45.55V504a3,3,0,0,0,1,2.25,3.26,3.26,0,0,0,2.35,1,1.41,1.41,0,0,0,1-.32l.33-.32a25.32,25.32,0,0,0,6.37-7.4,17.55,17.55,0,0,0,2.34-8.68ZM1166.44,504v0Zm26.12-198.69a26.68,26.68,0,0,1-8.7,19.93,28.93,28.93,0,0,1-20.77,8.36q-12.72,0-21.1-8.36a27.18,27.18,0,0,1-8.37-19.93,28,28,0,0,1,8.37-20.58q8.38-8.36,21.1-8.36a29,29,0,0,1,20.77,8.36,27.42,27.42,0,0,1,8.7,20.58Z"/><path d="M1358,507.24a63.42,63.42,0,0,1-22.1,15.75,65.54,65.54,0,0,1-26.13,5.47,37.73,37.73,0,0,1-5-.32,36.17,36.17,0,0,0-5-.32,82.82,82.82,0,0,1-10.38-3.22,80.71,80.71,0,0,1-9.71-4.5v96.71h-46.22V356.13h46.22v36.65c2.68-1.29,5.25-2.46,7.7-3.54s5-2,7.71-2.89c2.68-.43,5.24-.86,7.7-1.29a45.63,45.63,0,0,1,7.7-.64,63.15,63.15,0,0,1,25.79,5.47A60.88,60.88,0,0,1,1358,406.28a73.36,73.36,0,0,1,14.4,23.47,67,67,0,0,1,4.35,27.33A76.32,76.32,0,0,1,1358,507.24Zm-40.19-12.86a56.52,56.52,0,0,0,6.36-14.79,88.14,88.14,0,0,0,3-17.36V450.65a88.14,88.14,0,0,0-3-17.36,56.52,56.52,0,0,0-6.36-14.79,1.27,1.27,0,0,0-.33-1l-1-1a66.39,66.39,0,0,0-8-7.71,15.47,15.47,0,0,0-10-3.86h-1.34c-.45,0-.67.21-.67.64a3.1,3.1,0,0,0-1.34.32,3,3,0,0,1-1.34.32,41.47,41.47,0,0,0-7.37,4.51,80.18,80.18,0,0,0-6.7,5.78V497a101.23,101.23,0,0,0,10.38,7.72,18.08,18.08,0,0,0,9.71,3.21,15.05,15.05,0,0,0,9-3.21q4.35-3.23,9-10.29Z"/><path d="M1473.22,490.52a35.48,35.48,0,0,1-11.72,27,39.43,39.43,0,0,1-27.8,10.93,38.24,38.24,0,0,1-27.46-10.93,35.92,35.92,0,0,1-11.39-27V388.28h45.55V504a3,3,0,0,0,1,2.25,3.26,3.26,0,0,0,2.35,1,1.41,1.41,0,0,0,1-.32c.22-.22.34-.32.34-.32a25.44,25.44,0,0,0,6.36-7.4,17.55,17.55,0,0,0,2.34-8.68ZM1447.1,305.33a26.69,26.69,0,0,1-8.71,19.93,28.93,28.93,0,0,1-20.77,8.36q-12.72,0-21.1-8.36a27.18,27.18,0,0,1-8.37-19.93,28,28,0,0,1,8.37-20.58q8.38-8.36,21.1-8.36a29,29,0,0,1,20.77,8.36,27.43,27.43,0,0,1,8.71,20.58Z"/><path d="M1586.42,490.52a35.48,35.48,0,0,1-11.72,27,40.82,40.82,0,0,1-55.6,0,35.48,35.48,0,0,1-11.72-27V403.07h-18.76V384.42h18.76v-108h46.22v108h30.81v18.65H1553.6V504a3,3,0,0,0,.67,1.61,2.28,2.28,0,0,0,2,1c.44.43.78.64,1,.64s.56-.21,1-.64a18.22,18.22,0,0,0,6.37-7.08,19.36,19.36,0,0,0,2.34-9Z"/><path d="M1738.76,726.25q0,18-13.73,31.19a46.19,46.19,0,0,1-33.16,13.18,49.81,49.81,0,0,1-17.41-3.22,44.09,44.09,0,0,1-15.41-9.64l14.07-12.86a45.56,45.56,0,0,0,8,4.82,21.48,21.48,0,0,0,9.37,2.25h2l1-238.3a86.27,86.27,0,0,1-20.43,10.93,65.88,65.88,0,0,1-23.78,4.5,49,49,0,0,1-16.75-2.89,55.23,55.23,0,0,1-15.4-8.68A35.63,35.63,0,0,1,1606.85,505a34.81,34.81,0,0,1-3.69-15.76V384.42h46.89V498.88a7.4,7.4,0,0,0,3.68,6.75,15.76,15.76,0,0,0,8.38,2.25h2.68l.67-.32a3.1,3.1,0,0,1,1.34-.32,68.63,68.63,0,0,0,15.07-8.36,53.48,53.48,0,0,0,11.72-11.58V384.42h46.21l-1,341.83Z"/></g></svg>